<svg width="25" height="24" viewBox="0 0 25 24" fill="none" xmlns="http://www.w3.org/2000/svg">
<path d="M13.5 9H7.5" stroke="#65656A" stroke-width="1.5" stroke-linecap="round" stroke-linejoin="round"/>
<path d="M22.5002 10.9702V13.0302C22.5002 13.5802 22.0602 14.0302 21.5002 14.0502H19.5402C18.4602 14.0502 17.4702 13.2602 17.3802 12.1802C17.3202 11.5502 17.5602 10.9602 17.9802 10.5502C18.3502 10.1702 18.8602 9.9502 19.4202 9.9502H21.5002C22.0602 9.9702 22.5002 10.4202 22.5002 10.9702Z" stroke="#65656A" stroke-width="1.5" stroke-linecap="round" stroke-linejoin="round"/>
<path d="M17.98 10.55C17.56 10.96 17.32 11.55 17.38 12.18C17.47 13.26 18.46 14.05 19.54 14.05H21.5V15.5C21.5 18.5 19.5 20.5 16.5 20.5H7.5C4.5 20.5 2.5 18.5 2.5 15.5V8.5C2.5 5.78 4.14 3.88 6.69 3.56C6.95 3.52 7.22 3.5 7.5 3.5H16.5C16.76 3.5 17.01 3.50999 17.25 3.54999C19.83 3.84999 21.5 5.76 21.5 8.5V9.95001H19.42C18.86 9.95001 18.35 10.17 17.98 10.55Z" stroke="#65656A" stroke-width="1.5" stroke-linecap="round" stroke-linejoin="round"/>
</svg>
