<svg width="24" height="24" viewBox="0 0 24 24" fill="none" xmlns="http://www.w3.org/2000/svg">
<g clip-path="url(#clip0_1932_15209)">
<mask id="path-1-inside-1_1932_15209" fill="white">
<path d="M24 12C24 18.6274 18.6274 24 12 24C5.37258 24 0 18.6274 0 12C0 5.37258 5.37258 0 12 0C18.6274 0 24 5.37258 24 12ZM3.6 12C3.6 16.6392 7.36081 20.4 12 20.4C16.6392 20.4 20.4 16.6392 20.4 12C20.4 7.36081 16.6392 3.6 12 3.6C7.36081 3.6 3.6 7.36081 3.6 12Z"/>
</mask>
<path d="M24 12C24 18.6274 18.6274 24 12 24C5.37258 24 0 18.6274 0 12C0 5.37258 5.37258 0 12 0C18.6274 0 24 5.37258 24 12ZM3.6 12C3.6 16.6392 7.36081 20.4 12 20.4C16.6392 20.4 20.4 16.6392 20.4 12C20.4 7.36081 16.6392 3.6 12 3.6C7.36081 3.6 3.6 7.36081 3.6 12Z" stroke="black" stroke-opacity="0.04" stroke-width="6" mask="url(#path-1-inside-1_1932_15209)"/>
<mask id="path-2-inside-2_1932_15209" fill="white">
<path d="M4.76128 19.2387C4.46335 19.5367 3.97806 19.5383 3.70149 19.2204C2.76438 18.1434 2.04423 16.8923 1.58377 15.5358C1.04142 13.9381 0.873874 12.237 1.09411 10.5642C1.31434 8.89138 1.91644 7.29164 2.85383 5.88873C3.79123 4.48582 5.03879 3.31735 6.5 2.47372C7.96122 1.63009 9.59692 1.1339 11.2806 1.02355C12.9642 0.9132 14.6507 1.19164 16.2095 1.83733C17.7683 2.48301 19.1577 3.47865 20.2702 4.7472C21.2148 5.82421 21.9382 7.07343 22.4023 8.4235C22.5393 8.82195 22.2953 9.2414 21.8883 9.35045C21.4813 9.4595 21.0659 9.21661 20.9245 8.81972C20.5237 7.69517 19.9132 6.65424 19.1231 5.75324C18.1649 4.66064 16.9682 3.80312 15.6256 3.24699C14.283 2.69087 12.8305 2.45105 11.3804 2.5461C9.93025 2.64114 8.52144 3.0685 7.26291 3.79511C6.00438 4.52172 4.92987 5.52811 4.1225 6.73642C3.31513 7.94473 2.79655 9.32258 2.60687 10.7634C2.41718 12.2042 2.56148 13.6693 3.02861 15.0454C3.41382 16.1802 4.01004 17.2293 4.78356 18.1387C5.05656 18.4596 5.05922 18.9408 4.76128 19.2387Z"/>
</mask>
<path d="M4.76128 19.2387C4.46335 19.5367 3.97806 19.5383 3.70149 19.2204C2.76438 18.1434 2.04423 16.8923 1.58377 15.5358C1.04142 13.9381 0.873874 12.237 1.09411 10.5642C1.31434 8.89138 1.91644 7.29164 2.85383 5.88873C3.79123 4.48582 5.03879 3.31735 6.5 2.47372C7.96122 1.63009 9.59692 1.1339 11.2806 1.02355C12.9642 0.9132 14.6507 1.19164 16.2095 1.83733C17.7683 2.48301 19.1577 3.47865 20.2702 4.7472C21.2148 5.82421 21.9382 7.07343 22.4023 8.4235C22.5393 8.82195 22.2953 9.2414 21.8883 9.35045C21.4813 9.4595 21.0659 9.21661 20.9245 8.81972C20.5237 7.69517 19.9132 6.65424 19.1231 5.75324C18.1649 4.66064 16.9682 3.80312 15.6256 3.24699C14.283 2.69087 12.8305 2.45105 11.3804 2.5461C9.93025 2.64114 8.52144 3.0685 7.26291 3.79511C6.00438 4.52172 4.92987 5.52811 4.1225 6.73642C3.31513 7.94473 2.79655 9.32258 2.60687 10.7634C2.41718 12.2042 2.56148 13.6693 3.02861 15.0454C3.41382 16.1802 4.01004 17.2293 4.78356 18.1387C5.05656 18.4596 5.05922 18.9408 4.76128 19.2387Z" stroke="#07ACFF" stroke-width="6" stroke-linejoin="round" mask="url(#path-2-inside-2_1932_15209)"/>
</g>
<defs>
<clipPath id="clip0_1932_15209">
<rect width="24" height="24" fill="white"/>
</clipPath>
</defs>
</svg>
