<svg width="24" height="24" viewBox="0 0 24 24" fill="none" xmlns="http://www.w3.org/2000/svg">
<path d="M4.21 14.9299C6.27 16.9799 9.22 17.6099 11.81 16.7999L16.52 21.4999C16.86 21.8499 17.53 22.0599 18.01 21.9899L20.19 21.6899C20.91 21.5899 21.58 20.9099 21.69 20.1899L21.99 18.0099C22.06 17.5299 21.83 16.8599 21.5 16.5199L16.8 11.8199C17.6 9.21995 16.98 6.26995 14.92 4.21995C11.97 1.26995 7.18 1.26995 4.22 4.21995C1.26 7.16995 1.26 11.9799 4.21 14.9299Z" stroke="#07ACFF" stroke-width="1.5" stroke-miterlimit="10" stroke-linecap="round" stroke-linejoin="round"/>
<path d="M17.11 17.49L14.81 19.79" stroke="#07ACFF" stroke-width="1.5" stroke-miterlimit="10" stroke-linecap="round" stroke-linejoin="round"/>
<path d="M9.5 11C8.67157 11 8 10.3284 8 9.5C8 8.67157 8.67157 8 9.5 8C10.3284 8 11 8.67157 11 9.5C11 10.3284 10.3284 11 9.5 11Z" stroke="#07ACFF" stroke-width="1.5" stroke-linecap="round" stroke-linejoin="round"/>
</svg>
