<svg width="30" height="30" viewBox="0 0 30 30" fill="none" xmlns="http://www.w3.org/2000/svg">
<rect width="30" height="30" rx="5" fill="#07ACFF"/>
<path d="M25 15V20C25 23 23 25 20 25H10C7 25 5 23 5 20V15C5 12.28 6.64 10.38 9.19 10.06C9.45 10.02 9.72 10 10 10H20C20.26 10 20.51 10.01 20.75 10.05C23.33 10.35 25 12.26 25 15Z" fill="white" stroke="#07ACFF" stroke-linecap="round" stroke-linejoin="round"/>
<path d="M20.7514 10.05C20.5114 10.01 20.2614 10 20.0014 10H10.0014C9.72141 10 9.45141 10.02 9.19141 10.06C9.33141 9.78001 9.53141 9.52001 9.77141 9.28001L13.0214 6.02C14.3914 4.66 16.6114 4.66 17.9814 6.02L19.7314 7.79002C20.3714 8.42002 20.7114 9.22 20.7514 10.05Z" fill="white" stroke="#07ACFF" stroke-linecap="round" stroke-linejoin="round"/>
<path d="M25 15.5H22C20.9 15.5 20 16.4 20 17.5C20 18.6 20.9 19.5 22 19.5H25" fill="white"/>
<path d="M25 15.5H22C20.9 15.5 20 16.4 20 17.5C20 18.6 20.9 19.5 22 19.5H25" stroke="#07ACFF" stroke-linecap="round" stroke-linejoin="round"/>
</svg>
