<svg width="365" height="205" viewBox="0 0 365 205" fill="none" xmlns="http://www.w3.org/2000/svg">
<mask id="mask0_136_2195" style="mask-type:alpha" maskUnits="userSpaceOnUse" x="0" y="0" width="365" height="205">
<rect width="365" height="205" rx="15" fill="#F7F9FB"/>
</mask>
<g mask="url(#mask0_136_2195)">
<path opacity="0.14" fill-rule="evenodd" clip-rule="evenodd" d="M95.8667 83.0719C80.5563 71.4919 88.063 43.4061 96.1144 25.9821C104.223 8.43459 120.419 -13.8651 139.622 -11.6172C172.348 -7.78624 189.689 37.2132 222.447 40.7706C237.156 42.368 225.95 9.93705 235.707 -1.18253C244.208 -10.8714 260.227 -21.4188 271.447 -15.0723C284.491 -7.69408 271.113 23.9965 285.769 27.1336C313.864 33.1478 353.506 -18.8007 368.501 5.70318C383.535 30.2726 326.422 45.2256 312.149 70.2452C307.676 78.086 312.008 88.941 316.577 96.7261C329.554 118.836 364.327 131.513 363.137 157.12C362.305 175.009 330.318 170.638 312.94 174.982C299.203 178.416 284.516 184.751 271.135 180.12C256.523 175.062 251.889 143.392 237.42 148.844C209.282 159.446 206.495 206.918 177.633 215.351C160.39 220.389 137.321 194.989 140.174 177.257C145.198 146.032 209.415 130.114 195.951 101.494C181.39 70.5412 123.152 103.709 95.8667 83.0719Z" stroke="#07ACFF"/>
</g>
</svg>
