<svg width="25" height="24" viewBox="0 0 25 24" fill="none" xmlns="http://www.w3.org/2000/svg">
<path d="M8.37495 22H16.3749C20.3949 22 21.1149 20.39 21.3249 18.43L22.0749 10.43C22.3449 7.99 21.6449 6 17.3749 6H7.37495C3.10495 6 2.40495 7.99 2.67495 10.43L3.42495 18.43C3.63495 20.39 4.35495 22 8.37495 22Z" stroke="#65656A" stroke-width="1.5" stroke-miterlimit="10" stroke-linecap="round" stroke-linejoin="round"/>
<path d="M8.375 6V5.2C8.375 3.43 8.375 2 11.575 2H13.175C16.375 2 16.375 3.43 16.375 5.2V6" stroke="#65656A" stroke-width="1.5" stroke-miterlimit="10" stroke-linecap="round" stroke-linejoin="round"/>
<path d="M14.375 13V14C14.375 14.01 14.375 14.01 14.375 14.02C14.375 15.11 14.365 16 12.375 16C10.395 16 10.375 15.12 10.375 14.03V13C10.375 12 10.375 12 11.375 12H13.375C14.375 12 14.375 12 14.375 13Z" stroke="#65656A" stroke-width="1.5" stroke-miterlimit="10" stroke-linecap="round" stroke-linejoin="round"/>
<path d="M22.025 11C19.715 12.68 17.075 13.68 14.375 14.02" stroke="#65656A" stroke-width="1.5" stroke-miterlimit="10" stroke-linecap="round" stroke-linejoin="round"/>
<path d="M2.995 11.27C5.245 12.81 7.785 13.74 10.375 14.03" stroke="#65656A" stroke-width="1.5" stroke-miterlimit="10" stroke-linecap="round" stroke-linejoin="round"/>
</svg>
