<svg width="16" height="16" viewBox="0 0 16 16" fill="none" xmlns="http://www.w3.org/2000/svg">
<path d="M8 6.43994V8.29994L8.93333 9.23328" stroke="#99A2AD" stroke-linecap="round" stroke-linejoin="round"/>
<path d="M3.66699 7.99984C3.66699 5.6065 5.60699 3.6665 8.00033 3.6665C10.3937 3.6665 12.3337 5.6065 12.3337 7.99984C12.3337 9.3865 11.6803 10.6265 10.667 11.4198H10.6603C9.92699 11.9932 9.00699 12.3332 8.00033 12.3332C7.00699 12.3332 6.09366 11.9998 5.36033 11.4332H5.35366C4.32699 10.6398 3.66699 9.39984 3.66699 7.99984Z" stroke="#99A2AD" stroke-linecap="round" stroke-linejoin="round"/>
<path d="M5.35352 11.4333H5.36018C6.09352 11.9999 7.00685 12.3333 8.00018 12.3333C9.00685 12.3333 9.92685 11.9933 10.6602 11.4199H10.6668L10.3268 13.0666C10.0002 14.3333 9.26685 14.6666 8.36685 14.6666H7.64018C6.74018 14.6666 6.00018 14.3333 5.68018 13.0599L5.35352 11.4333Z" stroke="#99A2AD" stroke-linecap="round" stroke-linejoin="round"/>
<path d="M5.35352 4.56683H5.36018C6.09352 4.00016 7.00685 3.66683 8.00018 3.66683C9.00685 3.66683 9.92685 4.00683 10.6602 4.58016H10.6668L10.3268 2.9335C10.0002 1.66683 9.26685 1.3335 8.36685 1.3335H7.64018C6.74018 1.3335 6.00018 1.66683 5.68018 2.94016L5.35352 4.56683Z" stroke="#99A2AD" stroke-linecap="round" stroke-linejoin="round"/>
</svg>
