<svg width="16" height="16" viewBox="0 0 16 16" fill="none" xmlns="http://www.w3.org/2000/svg">
<path d="M10.6663 8.60016V11.4002C10.6663 13.7335 9.73301 14.6668 7.39967 14.6668H4.59967C2.26634 14.6668 1.33301 13.7335 1.33301 11.4002V8.60016C1.33301 6.26683 2.26634 5.3335 4.59967 5.3335H7.39967C9.73301 5.3335 10.6663 6.26683 10.6663 8.60016Z" stroke="#07ACFF" stroke-linecap="round" stroke-linejoin="round"/>
<path d="M14.6663 4.60016V7.40016C14.6663 9.7335 13.733 10.6668 11.3997 10.6668H10.6663V8.60016C10.6663 6.26683 9.73301 5.3335 7.39967 5.3335H5.33301V4.60016C5.33301 2.26683 6.26634 1.3335 8.59967 1.3335H11.3997C13.733 1.3335 14.6663 2.26683 14.6663 4.60016Z" stroke="#07ACFF" stroke-linecap="round" stroke-linejoin="round"/>
</svg>
