<svg width="24" height="24" viewBox="0 0 24 24" fill="none" xmlns="http://www.w3.org/2000/svg">
<path d="M19.0598 18.6699L16.9198 14.3999L14.7798 18.6699" stroke="#07ACFF" stroke-width="1.5" stroke-linecap="round" stroke-linejoin="round"/>
<path d="M15.1699 17.9099H18.6899" stroke="#07ACFF" stroke-width="1.5" stroke-linecap="round" stroke-linejoin="round"/>
<path d="M16.9198 22.0001C14.1198 22.0001 11.8398 19.73 11.8398 16.92C11.8398 14.12 14.1098 11.8401 16.9198 11.8401C19.7198 11.8401 21.9998 14.11 21.9998 16.92C21.9998 19.73 19.7298 22.0001 16.9198 22.0001Z" stroke="#07ACFF" stroke-width="1.5" stroke-linecap="round" stroke-linejoin="round"/>
<path d="M5.02 2H8.94C11.01 2 12.01 3.00002 11.96 5.02002V8.94C12.01 11.01 11.01 12.01 8.94 11.96H5.02C3 12 2 11 2 8.92999V5.01001C2 3.00001 3 2 5.02 2Z" stroke="#07ACFF" stroke-width="1.5" stroke-linecap="round" stroke-linejoin="round"/>
<path d="M9.0097 5.84985H4.94971" stroke="#07ACFF" stroke-width="1.5" stroke-linecap="round" stroke-linejoin="round"/>
<path d="M6.96973 5.16992V5.84991" stroke="#07ACFF" stroke-width="1.5" stroke-linecap="round" stroke-linejoin="round"/>
<path d="M7.98994 5.83984C7.98994 7.58984 6.61994 9.00983 4.93994 9.00983" stroke="#07ACFF" stroke-width="1.5" stroke-linecap="round" stroke-linejoin="round"/>
<path d="M9.01015 9.01001C8.28015 9.01001 7.62016 8.62 7.16016 8" stroke="#07ACFF" stroke-width="1.5" stroke-linecap="round" stroke-linejoin="round"/>
<path d="M2 15C2 18.87 5.13 22 9 22L7.95 20.25" stroke="#07ACFF" stroke-width="1.5" stroke-linecap="round" stroke-linejoin="round"/>
<path d="M22 9C22 5.13 18.87 2 15 2L16.05 3.75" stroke="#07ACFF" stroke-width="1.5" stroke-linecap="round" stroke-linejoin="round"/>
</svg>
