<svg width="16" height="16" viewBox="0 0 16 16" fill="none" xmlns="http://www.w3.org/2000/svg">
<path d="M9.80324 10.9768L14.3607 6.29488C14.4651 6.1877 14.6468 6.26157 14.6468 6.41113L14.6468 11.5485C14.6468 11.6072 14.6159 11.6616 14.5654 11.6917L11.9977 13.2191C11.9323 13.258 11.8488 13.2476 11.7948 13.1939L9.80503 11.2111C9.74036 11.1467 9.73957 11.0422 9.80324 10.9768Z" fill="#07ACFF" stroke="#07ACFF" stroke-linejoin="round"/>
<path d="M1.83301 11.5699L1.83301 6.38391C1.83301 6.23529 2.01282 6.16099 2.11773 6.26626L10.005 14.1808C10.0824 14.2584 10.0651 14.3883 9.97001 14.4429L8.34866 15.3744C8.29688 15.4041 8.23315 15.4039 8.18158 15.3738L1.91561 11.7139C1.86446 11.684 1.83301 11.6292 1.83301 11.5699Z" fill="#07ACFF" stroke="#07ACFF" stroke-linejoin="round"/>
<path d="M2.7294 3.85968L8.25602 0.628376C8.30798 0.597992 8.3723 0.597992 8.42426 0.628376L13.946 3.85685C14.0407 3.91218 14.057 4.04223 13.9791 4.11928L8.41892 9.61322C8.35371 9.67766 8.2487 9.67733 8.18389 9.61249L2.69564 4.12138C2.61845 4.04415 2.63514 3.91479 2.7294 3.85968Z" fill="#07ACFF" stroke="#07ACFF" stroke-linejoin="round"/>
</svg>
