<svg width="18" height="19" viewBox="0 0 18 19" fill="none" xmlns="http://www.w3.org/2000/svg">
<path d="M8.4375 13.9372H6.75C5.925 13.9372 5.25 14.6122 5.25 15.4372V15.6247H4.5C4.1925 15.6247 3.9375 15.8797 3.9375 16.1872C3.9375 16.4947 4.1925 16.7497 4.5 16.7497H13.5C13.8075 16.7497 14.0625 16.4947 14.0625 16.1872C14.0625 15.8797 13.8075 15.6247 13.5 15.6247H12.75V15.4372C12.75 14.6122 12.075 13.9372 11.25 13.9372H9.5625V12.2197C9.375 12.2422 9.1875 12.2497 9 12.2497C8.8125 12.2497 8.625 12.2422 8.4375 12.2197V13.9372Z" fill="#07ACFF"/>
<path d="M13.86 8.98C14.355 8.7925 14.79 8.485 15.135 8.14C15.8325 7.3675 16.29 6.445 16.29 5.365C16.29 4.285 15.4425 3.4375 14.3625 3.4375H13.9425C13.455 2.44 12.435 1.75 11.25 1.75H6.74996C5.56496 1.75 4.54496 2.44 4.05746 3.4375H3.63746C2.55746 3.4375 1.70996 4.285 1.70996 5.365C1.70996 6.445 2.16746 7.3675 2.86496 8.14C3.20996 8.485 3.64496 8.7925 4.13996 8.98C4.91996 10.9 6.79496 12.25 8.99996 12.25C11.205 12.25 13.08 10.9 13.86 8.98ZM11.13 6.5875L10.665 7.1575C10.59 7.24 10.5375 7.405 10.545 7.5175L10.59 8.2525C10.62 8.7025 10.2975 8.935 9.87746 8.77L9.19496 8.5C9.08996 8.4625 8.90996 8.4625 8.80496 8.5L8.12246 8.77C7.70246 8.935 7.37996 8.7025 7.40996 8.2525L7.45496 7.5175C7.46246 7.405 7.40996 7.24 7.33496 7.1575L6.86996 6.5875C6.57746 6.2425 6.70496 5.86 7.13996 5.7475L7.85246 5.5675C7.96496 5.5375 8.09996 5.4325 8.15996 5.335L8.55746 4.72C8.80496 4.3375 9.19496 4.3375 9.44246 4.72L9.83996 5.335C9.89996 5.4325 10.035 5.5375 10.1475 5.5675L10.86 5.7475C11.295 5.86 11.4225 6.2425 11.13 6.5875Z" fill="#07ACFF"/>
</svg>
