<svg width="16" height="17" viewBox="0 0 16 17" fill="none" xmlns="http://www.w3.org/2000/svg">
<path d="M7.99967 1.58301C4.33301 1.58301 1.33301 4.63634 1.33301 8.36967V13.6297C1.33301 14.4697 1.83301 14.6963 2.44634 14.1363L3.11301 13.5297C3.35967 13.303 3.75967 13.303 4.00634 13.5297L5.33967 14.7497C5.58634 14.9763 5.98634 14.9763 6.23301 14.7497L7.56634 13.5297C7.81301 13.303 8.21301 13.303 8.45967 13.5297L9.79301 14.7497C10.0397 14.9763 10.4397 14.9763 10.6863 14.7497L12.0197 13.5297C12.2663 13.303 12.6663 13.303 12.913 13.5297L13.5797 14.1363C14.193 14.6963 14.693 14.4697 14.693 13.6297V8.36967C14.6663 4.63634 11.6663 1.58301 7.99967 1.58301ZM7.99967 4.66301C8.87301 4.66301 9.58634 5.37634 9.58634 6.24967C9.58634 7.12301 8.87301 7.83634 7.99967 7.83634C7.12634 7.83634 6.41301 7.12301 6.41301 6.24967C6.41301 5.37634 7.12634 4.66301 7.99967 4.66301ZM10.9663 9.98301C10.093 10.6363 9.04634 10.963 7.99967 10.963C6.95301 10.963 5.90634 10.6363 5.03301 9.98301C4.81301 9.81634 4.76634 9.50301 4.93301 9.28301C5.09967 9.06301 5.41301 9.01634 5.63301 9.18301C7.02634 10.2297 8.97301 10.2297 10.3663 9.18301C10.5863 9.01634 10.8997 9.06301 11.0663 9.28301C11.233 9.50301 11.1863 9.81634 10.9663 9.98301Z" fill="#07ACFF"/>
</svg>
