<svg width="16" height="16" viewBox="0 0 16 16" fill="none" xmlns="http://www.w3.org/2000/svg">
<path d="M12.7205 10.4805C12.3272 8.1272 10.0672 6.21387 7.68051 6.21387C5.08718 6.21387 2.80718 8.31387 2.58718 10.9005C2.50051 11.9005 2.82051 12.8472 3.48051 13.5605C4.13384 14.2739 5.05384 14.6672 6.05384 14.6672H9.17384C10.3005 14.6672 11.2872 14.2272 11.9605 13.4339C12.6338 12.6405 12.9005 11.5872 12.7205 10.4805Z" fill="#07ACFF"/>
<path d="M6.85275 5.23967C7.93154 5.23967 8.80608 4.36514 8.80608 3.28634C8.80608 2.20754 7.93154 1.33301 6.85275 1.33301C5.77395 1.33301 4.89941 2.20754 4.89941 3.28634C4.89941 4.36514 5.77395 5.23967 6.85275 5.23967Z" fill="#07ACFF"/>
<path d="M11.2937 6.01993C12.192 6.01993 12.9203 5.29165 12.9203 4.39327C12.9203 3.49489 12.192 2.7666 11.2937 2.7666C10.3953 2.7666 9.66699 3.49489 9.66699 4.39327C9.66699 5.29165 10.3953 6.01993 11.2937 6.01993Z" fill="#07ACFF"/>
<path d="M13.6994 8.62051C14.4174 8.62051 14.9994 8.03848 14.9994 7.32051C14.9994 6.60254 14.4174 6.02051 13.6994 6.02051C12.9814 6.02051 12.3994 6.60254 12.3994 7.32051C12.3994 8.03848 12.9814 8.62051 13.6994 8.62051Z" fill="#07ACFF"/>
<path d="M2.62667 7.31974C3.52505 7.31974 4.25333 6.59146 4.25333 5.69307C4.25333 4.79469 3.52505 4.06641 2.62667 4.06641C1.72828 4.06641 1 4.79469 1 5.69307C1 6.59146 1.72828 7.31974 2.62667 7.31974Z" fill="#07ACFF"/>
</svg>
