<svg width="60" height="60" viewBox="0 0 60 60" fill="none" xmlns="http://www.w3.org/2000/svg">
<path d="M44.5266 13.725V15.575L35.6766 10.45C32.3266 8.525 27.6516 8.525 24.3266 10.45L15.4766 15.6V13.725C15.4766 8.1 18.5516 5 24.1766 5H35.8266C41.4516 5 44.5266 8.1 44.5266 13.725Z" fill="#07ACFF"/>
<path d="M44.6 19.9256L44.25 19.7506L40.85 17.8006L33.8 13.7256C31.65 12.4756 28.35 12.4756 26.2 13.7256L19.15 17.7756L15.75 19.7756L15.3 20.0006C10.925 22.9506 10.625 23.5006 10.625 28.2256V39.5256C10.625 44.2506 10.925 44.8006 15.4 47.8256L26.2 54.0506C27.275 54.7006 28.625 54.9756 30 54.9756C31.35 54.9756 32.725 54.6756 33.8 54.0506L44.7 47.7506C49.1 44.8006 49.375 44.2756 49.375 39.5256V28.2256C49.375 23.5006 49.075 22.9506 44.6 19.9256ZM36.975 33.7506L35.45 35.6256C35.2 35.9006 35.025 36.4256 35.05 36.8006L35.2 39.2006C35.3 40.6756 34.25 41.4256 32.875 40.9006L30.65 40.0006C30.3 39.8756 29.725 39.8756 29.375 40.0006L27.15 40.8756C25.775 41.4256 24.725 40.6506 24.825 39.1756L24.975 36.7756C25 36.4006 24.825 35.8756 24.575 35.6006L23.025 33.7506C22.075 32.6256 22.5 31.3756 23.925 31.0006L26.25 30.4006C26.625 30.3006 27.05 29.9506 27.25 29.6506L28.55 27.6506C29.35 26.4006 30.625 26.4006 31.45 27.6506L32.75 29.6506C32.95 29.9756 33.4 30.3006 33.75 30.4006L36.075 31.0006C37.5 31.3756 37.925 32.6256 36.975 33.7506Z" fill="#07ACFF"/>
</svg>
