<svg width="60" height="60" viewBox="0 0 60 60" fill="none" xmlns="http://www.w3.org/2000/svg">
<path d="M38.2934 46.8275C38.6793 46.6346 39.1373 46.9673 39.0511 47.3901L38.7234 48.9988C37.4984 53.7488 34.7484 54.9988 31.3734 54.9988H28.6484C25.2734 54.9988 22.4984 53.7488 21.2984 48.9738L20.984 47.3717C20.9015 46.9515 21.3545 46.623 21.7379 46.8135C24.2886 48.0805 27.0944 48.7488 29.9984 48.7488C32.9191 48.7488 35.7419 48.1026 38.2934 46.8275Z" fill="#07ACFF"/>
<path d="M39.0689 12.6448C39.1577 13.0695 38.6963 13.405 38.3091 13.2092C35.8166 11.9487 32.9957 11.25 30 11.25C27.0216 11.25 24.2184 11.9509 21.7279 13.1981C21.3425 13.3911 20.8857 13.0587 20.9718 12.6363L21.3 11.025C22.5 6.25 25.275 5 28.65 5H31.375C34.75 5 37.5 6.25 38.725 11L39.0689 12.6448Z" fill="#07ACFF"/>
<path d="M30 13.75C21.025 13.75 13.75 21.025 13.75 30C13.75 35.25 16.225 39.9 20.075 42.875H20.1C22.85 45 26.275 46.25 30 46.25C33.775 46.25 37.225 44.975 39.975 42.825H40C43.8 39.85 46.25 35.2 46.25 30C46.25 21.025 38.975 13.75 30 13.75ZM34.825 35.95C34.45 36.325 33.975 36.5 33.5 36.5C33.025 36.5 32.55 36.325 32.175 35.95L28.675 32.45C28.325 32.1 28.125 31.625 28.125 31.125V24.15C28.125 23.125 28.975 22.275 30 22.275C31.025 22.275 31.875 23.125 31.875 24.15V30.35L34.825 33.3C35.55 34.025 35.55 35.225 34.825 35.95Z" fill="#07ACFF"/>
</svg>
