<svg width="60" height="60" viewBox="0 0 60 60" fill="none" xmlns="http://www.w3.org/2000/svg">
<path d="M15 12.8008C13.975 12.8008 13.125 11.9508 13.125 10.9258V6.55078C13.125 5.52578 13.975 4.67578 15 4.67578C16.025 4.67578 16.875 5.52578 16.875 6.55078V10.9258C16.875 11.9758 16.025 12.8008 15 12.8008Z" fill="#07ACFF"/>
<path d="M25 12.8008C23.975 12.8008 23.125 11.9508 23.125 10.9258V6.55078C23.125 5.52578 23.975 4.67578 25 4.67578C26.025 4.67578 26.875 5.52578 26.875 6.55078V10.9258C26.875 11.9758 26.025 12.8008 25 12.8008Z" fill="#07ACFF"/>
<path d="M35 12.8008C33.975 12.8008 33.125 11.9508 33.125 10.9258V6.55078C33.125 5.52578 33.975 4.67578 35 4.67578C36.025 4.67578 36.875 5.52578 36.875 6.55078V10.9258C36.875 11.9758 36.025 12.8008 35 12.8008Z" fill="#07ACFF"/>
<path d="M55.625 33.1244C55.625 26.5744 50.55 21.2744 44.15 20.7244C42.3 17.6994 39 15.6494 35.2 15.6494H16.775C10.975 15.6494 6.25 20.3744 6.25 26.1744V27.4994H45.725V26.1744C45.725 25.6994 45.65 25.2244 45.575 24.7744C49.2 25.8494 51.875 29.1494 51.875 33.1244C51.875 37.0494 49.275 40.3244 45.725 41.4244V29.9994H6.25V44.4744C6.25 50.2744 10.975 54.9994 16.775 54.9994H35.2C40.7 54.9994 45.175 50.7494 45.625 45.3494C51.325 44.1994 55.625 39.1494 55.625 33.1244Z" fill="#07ACFF"/>
</svg>
