<svg width="60" height="60" viewBox="0 0 60 60" fill="none" xmlns="http://www.w3.org/2000/svg">
<path d="M31.875 39.8008H33.5C35.125 39.8008 36.475 38.3508 36.475 36.6008C36.475 34.4258 35.7 34.0008 34.425 33.5508L31.9 32.6758V39.8008H31.875Z" fill="#07ACFF"/>
<path d="M29.9252 4.75102C16.1252 4.80102 4.95017 16.026 5.00017 29.826C5.05017 43.626 16.2752 54.801 30.0752 54.751C43.8752 54.701 55.0502 43.476 55.0002 29.676C54.9502 15.876 43.7252 4.72602 29.9252 4.75102ZM35.6502 30.001C37.6002 30.676 40.2252 32.126 40.2252 36.601C40.2252 40.451 37.2002 43.551 33.5002 43.551H31.8752V45.001C31.8752 46.026 31.0252 46.876 30.0002 46.876C28.9752 46.876 28.1252 46.026 28.1252 45.001V43.551H27.2252C23.1252 43.551 19.8002 40.101 19.8002 35.851C19.8002 34.826 20.6502 33.976 21.6752 33.976C22.7002 33.976 23.5502 34.826 23.5502 35.851C23.5502 38.026 25.2002 39.801 27.2252 39.801H28.1252V31.351L24.3502 30.001C22.4002 29.326 19.7752 27.876 19.7752 23.401C19.7752 19.551 22.8002 16.451 26.5002 16.451H28.1252V15.001C28.1252 13.976 28.9752 13.126 30.0002 13.126C31.0252 13.126 31.8752 13.976 31.8752 15.001V16.451H32.7752C36.8752 16.451 40.2002 19.901 40.2002 24.151C40.2002 25.176 39.3502 26.026 38.3252 26.026C37.3002 26.026 36.4502 25.176 36.4502 24.151C36.4502 21.976 34.8002 20.201 32.7752 20.201H31.8752V28.651L35.6502 30.001Z" fill="#07ACFF"/>
<path d="M23.5498 23.4252C23.5498 25.6002 24.3248 26.0252 25.5998 26.4752L28.1248 27.3502V20.2002H26.4998C24.8748 20.2002 23.5498 21.6502 23.5498 23.4252Z" fill="#07ACFF"/>
</svg>
