<svg width="60" height="60" viewBox="0 0 60 60" fill="none" xmlns="http://www.w3.org/2000/svg">
<path d="M6.87455 46.625C5.84955 46.625 4.99955 45.775 4.99955 44.75V30.5C4.87455 23.725 7.39955 17.325 12.0995 12.525C16.7995 7.75 23.0995 5.125 29.8745 5.125C43.7245 5.125 54.9995 16.4 54.9995 30.25V44.5C54.9995 45.525 54.1495 46.375 53.1245 46.375C52.0995 46.375 51.2495 45.525 51.2495 44.5V30.25C51.2495 18.475 41.6745 8.875 29.8745 8.875C24.0995 8.875 18.7495 11.1 14.7745 15.15C10.7745 19.225 8.64955 24.65 8.74955 30.45V44.725C8.74955 45.775 7.92455 46.625 6.87455 46.625Z" fill="#07ACFF"/>
<path d="M14.85 31.125H14.525C9.275 31.125 5 35.4 5 40.65V45.35C5 50.6 9.275 54.875 14.525 54.875H14.85C20.1 54.875 24.375 50.6 24.375 45.35V40.65C24.375 35.4 20.1 31.125 14.85 31.125Z" fill="#07ACFF"/>
<path d="M45.475 31.125H45.15C39.9 31.125 35.625 35.4 35.625 40.65V45.35C35.625 50.6 39.9 54.875 45.15 54.875H45.475C50.725 54.875 55 50.6 55 45.35V40.65C55 35.4 50.725 31.125 45.475 31.125Z" fill="#07ACFF"/>
</svg>
