<svg width="60" height="60" viewBox="0 0 60 60" fill="none" xmlns="http://www.w3.org/2000/svg">
<path d="M48.7494 18.7492L45.0244 22.4742L37.5244 14.9742L41.2494 11.2492C42.2994 10.1992 43.6494 9.69922 44.9994 9.69922C46.3494 9.69922 47.6994 10.1992 48.7494 11.2492C50.8244 13.3242 50.8244 16.6742 48.7494 18.7492Z" fill="#07ACFF"/>
<path d="M43.2766 24.25L16.2516 51.25C14.1766 53.325 10.8266 53.325 8.75156 51.25C6.67656 49.175 6.67656 45.825 8.75156 43.75L35.7766 16.75L43.2766 24.25Z" fill="#07ACFF"/>
<path d="M24.8743 8.74931L25.8993 5.27431C25.9993 4.94931 25.8993 4.59931 25.6743 4.34931C25.4493 4.09931 25.0493 3.99931 24.7243 4.09931L21.2493 5.12431L17.7743 4.09931C17.4493 3.99931 17.0993 4.09931 16.8493 4.32431C16.5993 4.57431 16.5243 4.92431 16.6243 5.24931L17.6243 8.74931L16.5993 12.2243C16.4993 12.5493 16.5993 12.8993 16.8243 13.1493C17.0743 13.3993 17.4243 13.4743 17.7493 13.3743L21.2493 12.3743L24.7243 13.3993C24.8243 13.4243 24.8993 13.4493 24.9993 13.4493C25.2493 13.4493 25.4743 13.3493 25.6743 13.1743C25.9243 12.9243 25.9993 12.5743 25.8993 12.2493L24.8743 8.74931Z" fill="#07ACFF"/>
<path d="M14.8743 23.7493L15.8993 20.2743C15.9993 19.9493 15.8993 19.5993 15.6743 19.3493C15.4243 19.0993 15.0743 19.0243 14.7493 19.1243L11.2493 20.1243L7.77431 19.0993C7.44931 18.9993 7.09931 19.0993 6.84931 19.3243C6.59931 19.5743 6.52431 19.9243 6.62431 20.2493L7.62431 23.7493L6.59931 27.2243C6.49931 27.5493 6.59931 27.8993 6.82431 28.1493C7.07431 28.3993 7.42431 28.4743 7.74931 28.3743L11.2243 27.3493L14.6993 28.3743C14.7743 28.3993 14.8743 28.3993 14.9743 28.3993C15.2243 28.3993 15.4493 28.2993 15.6493 28.1243C15.8993 27.8743 15.9743 27.5243 15.8743 27.1993L14.8743 23.7493Z" fill="#07ACFF"/>
<path d="M52.3743 36.2499L53.3993 32.7749C53.4993 32.4499 53.3993 32.0999 53.1743 31.8499C52.9243 31.5999 52.5743 31.5249 52.2493 31.6249L48.7743 32.6499L45.2993 31.6249C44.9743 31.5249 44.6243 31.6249 44.3743 31.8499C44.1243 32.0999 44.0493 32.4499 44.1493 32.7749L45.1743 36.2499L44.1493 39.7249C44.0493 40.0499 44.1493 40.3999 44.3743 40.6499C44.6243 40.8999 44.9743 40.9749 45.2993 40.8749L48.7743 39.8499L52.2493 40.8749C52.3243 40.8999 52.4243 40.8999 52.5243 40.8999C52.7743 40.8999 52.9993 40.7999 53.1993 40.6249C53.4493 40.3749 53.5243 40.0249 53.4243 39.6999L52.3743 36.2499Z" fill="#07ACFF"/>
</svg>
