<svg width="60" height="60" viewBox="0 0 60 60" fill="none" xmlns="http://www.w3.org/2000/svg">
<path d="M47.7007 39.3008C46.2257 30.4758 37.7507 23.3008 28.8007 23.3008C19.0757 23.3008 10.5257 31.1758 9.70069 40.8758C9.37569 44.6258 10.5757 48.1758 13.0507 50.8508C15.5007 53.5258 18.9507 55.0008 22.7007 55.0008H34.4007C38.6257 55.0008 42.3257 53.3508 44.8507 50.3758C47.3757 47.4008 48.3757 43.4508 47.7007 39.3008Z" fill="#07ACFF"/>
<path d="M25.699 19.65C29.7445 19.65 33.024 16.3705 33.024 12.325C33.024 8.27951 29.7445 5 25.699 5C21.6535 5 18.374 8.27951 18.374 12.325C18.374 16.3705 21.6535 19.65 25.699 19.65Z" fill="#07ACFF"/>
<path d="M42.35 22.576C45.7189 22.576 48.45 19.8449 48.45 16.476C48.45 13.107 45.7189 10.376 42.35 10.376C38.9811 10.376 36.25 13.107 36.25 16.476C36.25 19.8449 38.9811 22.576 42.35 22.576Z" fill="#07ACFF"/>
<path d="M51.374 32.3262C54.0664 32.3262 56.249 30.1436 56.249 27.4512C56.249 24.7588 54.0664 22.5762 51.374 22.5762C48.6816 22.5762 46.499 24.7588 46.499 27.4512C46.499 30.1436 48.6816 32.3262 51.374 32.3262Z" fill="#07ACFF"/>
<path d="M9.85 27.449C13.2189 27.449 15.95 24.718 15.95 21.349C15.95 17.9801 13.2189 15.249 9.85 15.249C6.48106 15.249 3.75 17.9801 3.75 21.349C3.75 24.718 6.48106 27.449 9.85 27.449Z" fill="#07ACFF"/>
</svg>
