<svg width="60" height="60" viewBox="0 0 60 60" fill="none" xmlns="http://www.w3.org/2000/svg">
<path d="M22.5 5C15.95 5 10.625 10.325 10.625 16.875C10.625 23.3 15.65 28.5 22.2 28.725C22.4 28.7 22.6 28.7 22.75 28.725C22.8 28.725 22.825 28.725 22.875 28.725C22.9 28.725 22.9 28.725 22.925 28.725C29.325 28.5 34.35 23.3 34.375 16.875C34.375 10.325 29.05 5 22.5 5Z" fill="#07ACFF"/>
<path d="M35.2004 35.3742C28.2254 30.7242 16.8504 30.7242 9.82539 35.3742C6.65039 37.4992 4.90039 40.3742 4.90039 43.4492C4.90039 46.5242 6.65039 49.3742 9.80039 51.4742C13.3004 53.8242 17.9004 54.9992 22.5004 54.9992C27.1004 54.9992 31.7004 53.8242 35.2004 51.4742C38.3504 49.3492 40.1004 46.4992 40.1004 43.3992C40.0754 40.3242 38.3504 37.4742 35.2004 35.3742Z" fill="#07ACFF"/>
<path d="M49.9754 18.3502C50.3754 23.2002 46.9254 27.4502 42.1504 28.0252C42.1254 28.0252 42.1254 28.0252 42.1004 28.0252H42.0254C41.8754 28.0252 41.7254 28.0252 41.6004 28.0752C39.1754 28.2002 36.9504 27.4252 35.2754 26.0002C37.8504 23.7002 39.3254 20.2502 39.0254 16.5002C38.8504 14.4752 38.1504 12.6252 37.1004 11.0502C38.0504 10.5752 39.1504 10.2752 40.2754 10.1752C45.1754 9.75025 49.5504 13.4002 49.9754 18.3502Z" fill="#07ACFF"/>
<path d="M54.9756 41.476C54.7756 43.901 53.2256 46.001 50.6256 47.426C48.1256 48.801 44.9756 49.451 41.8506 49.376C43.6506 47.751 44.7006 45.726 44.9006 43.576C45.1506 40.476 43.6756 37.501 40.7256 35.126C39.0506 33.801 37.1006 32.751 34.9756 31.976C40.5006 30.376 47.4506 31.451 51.7256 34.901C54.0256 36.751 55.2006 39.076 54.9756 41.476Z" fill="#07ACFF"/>
</svg>
