<svg width="60" height="60" viewBox="0 0 60 60" fill="none" xmlns="http://www.w3.org/2000/svg">
<path d="M16.675 35H10C7.25 35 5 37.25 5 40V52.5C5 53.875 6.125 55 7.5 55H16.675C18.05 55 19.175 53.875 19.175 52.5V37.5C19.175 36.125 18.05 35 16.675 35Z" fill="#07ACFF"/>
<path d="M33.3254 25H26.6504C23.9004 25 21.6504 27.25 21.6504 30V52.5C21.6504 53.875 22.7754 55 24.1504 55H35.8254C37.2004 55 38.3254 53.875 38.3254 52.5V30C38.3254 27.25 36.1004 25 33.3254 25Z" fill="#07ACFF"/>
<path d="M50.0002 42.5H43.3252C41.9502 42.5 40.8252 43.625 40.8252 45V52.5C40.8252 53.875 41.9502 55 43.3252 55H52.5002C53.8752 55 55.0002 53.875 55.0002 52.5V47.5C55.0002 44.75 52.7502 42.5 50.0002 42.5Z" fill="#07ACFF"/>
<path d="M37.5256 12.1262C38.3006 11.3512 38.6006 10.4262 38.3506 9.62617C38.1006 8.82617 37.3256 8.25117 36.2256 8.07617L33.8256 7.67617C33.7256 7.67617 33.5006 7.50117 33.4506 7.40117L32.1256 4.75117C31.1256 2.72617 28.8506 2.72617 27.8506 4.75117L26.5256 7.40117C26.5006 7.50117 26.2756 7.67617 26.1756 7.67617L23.7756 8.07617C22.6756 8.25117 21.9256 8.82617 21.6506 9.62617C21.4006 10.4262 21.7006 11.3512 22.4756 12.1262L24.3256 14.0012C24.4256 14.0762 24.5006 14.3762 24.4756 14.4762L23.9506 16.7762C23.5506 18.5012 24.2006 19.2762 24.6256 19.5762C25.0506 19.8762 25.9756 20.2762 27.5006 19.3762L29.7506 18.0512C29.8506 17.9762 30.1756 17.9762 30.2756 18.0512L32.5006 19.3762C33.2006 19.8012 33.7756 19.9262 34.2256 19.9262C34.7506 19.9262 35.1256 19.7262 35.3506 19.5762C35.7756 19.2762 36.4256 18.5012 36.0256 16.7762L35.5006 14.4762C35.4756 14.3512 35.5506 14.0762 35.6506 14.0012L37.5256 12.1262Z" fill="#07ACFF"/>
</svg>
