<svg width="60" height="60" viewBox="0 0 60 60" fill="none" xmlns="http://www.w3.org/2000/svg">
<path d="M45.8496 35.325L40.3996 30.95C39.6246 30.35 38.6496 30 37.6496 30H31.8746V22.5H43.0496C45.4746 22.5 47.4246 20.55 47.4246 18.125V9.375C47.4246 6.95 45.4746 5 43.0496 5H22.3996C21.4246 5 20.4496 5.35 19.6746 5.95L14.1996 10.325C12.0246 12.075 12.0246 15.425 14.1996 17.175L19.6746 21.55C20.4496 22.15 21.4246 22.5 22.3996 22.5H28.1246V30H16.9996C14.5746 30 12.6246 31.95 12.6246 34.375V43.125C12.6246 45.55 14.5746 47.5 16.9996 47.5H28.1246V53.125H22.4996C21.4746 53.125 20.6246 53.975 20.6246 55C20.6246 56.025 21.4746 56.875 22.4996 56.875H37.4996C38.5246 56.875 39.3746 56.025 39.3746 55C39.3746 53.975 38.5246 53.125 37.4996 53.125H31.8746V47.5H37.6496C38.6496 47.5 39.6246 47.15 40.3996 46.55L45.8496 42.175C48.0496 40.425 48.0496 37.075 45.8496 35.325Z" fill="#07ACFF"/>
</svg>
