<svg width="60" height="60" viewBox="0 0 60 60" fill="none" xmlns="http://www.w3.org/2000/svg">
<path d="M42.0758 39.1004C43.7508 38.0004 45.9508 39.2004 45.9508 41.2004V44.4254C45.9508 47.6004 43.4758 51.0004 40.5008 52.0004L32.5258 54.6504C31.1258 55.1254 28.8508 55.1254 27.4758 54.6504L19.5008 52.0004C16.5008 51.0004 14.0508 47.6004 14.0508 44.4254V41.1754C14.0508 39.2004 16.2508 38.0004 17.9008 39.0754L23.0508 42.4254C25.0258 43.7504 27.5258 44.4004 30.0258 44.4004C32.5258 44.4004 35.0258 43.7504 37.0008 42.4254L42.0758 39.1004Z" fill="#07ACFF"/>
<path d="M49.9488 16.1484L34.9738 6.32344C32.2738 4.54844 27.8238 4.54844 25.1238 6.32344L10.0738 16.1484C5.24883 19.2734 5.24883 26.3484 10.0738 29.4984L14.0738 32.0984L25.1238 39.2984C27.8238 41.0734 32.2738 41.0734 34.9738 39.2984L45.9488 32.0984L49.3738 29.8484V37.4984C49.3738 38.5234 50.2238 39.3734 51.2488 39.3734C52.2738 39.3734 53.1238 38.5234 53.1238 37.4984V25.1984C54.1238 21.9734 53.0988 18.2234 49.9488 16.1484Z" fill="#07ACFF"/>
</svg>
