<svg width="47" height="46" viewBox="0 0 47 46" fill="none" xmlns="http://www.w3.org/2000/svg">
<rect x="0.875" width="46" height="46" rx="23" fill="#07ACFF"/>
<path d="M24.245 13.1501L33.245 16.7501C33.595 16.8901 33.875 17.3101 33.875 17.6801V21.0001C33.875 21.5501 33.425 22.0001 32.875 22.0001H14.875C14.325 22.0001 13.875 21.5501 13.875 21.0001V17.6801C13.875 17.3101 14.155 16.8901 14.505 16.7501L23.505 13.1501C23.705 13.0701 24.045 13.0701 24.245 13.1501Z" stroke="white" stroke-width="1.5" stroke-miterlimit="10" stroke-linecap="round" stroke-linejoin="round"/>
<path d="M33.875 33H13.875V30C13.875 29.45 14.325 29 14.875 29H32.875C33.425 29 33.875 29.45 33.875 30V33Z" stroke="white" stroke-width="1.5" stroke-miterlimit="10" stroke-linecap="round" stroke-linejoin="round"/>
<path d="M15.875 29V22" stroke="white" stroke-width="1.5" stroke-miterlimit="10" stroke-linecap="round" stroke-linejoin="round"/>
<path d="M19.875 29V22" stroke="white" stroke-width="1.5" stroke-miterlimit="10" stroke-linecap="round" stroke-linejoin="round"/>
<path d="M23.875 29V22" stroke="white" stroke-width="1.5" stroke-miterlimit="10" stroke-linecap="round" stroke-linejoin="round"/>
<path d="M27.875 29V22" stroke="white" stroke-width="1.5" stroke-miterlimit="10" stroke-linecap="round" stroke-linejoin="round"/>
<path d="M31.875 29V22" stroke="white" stroke-width="1.5" stroke-miterlimit="10" stroke-linecap="round" stroke-linejoin="round"/>
<path d="M12.875 33H34.875" stroke="white" stroke-width="1.5" stroke-miterlimit="10" stroke-linecap="round" stroke-linejoin="round"/>
<path d="M23.875 19.5C24.7034 19.5 25.375 18.8284 25.375 18C25.375 17.1716 24.7034 16.5 23.875 16.5C23.0466 16.5 22.375 17.1716 22.375 18C22.375 18.8284 23.0466 19.5 23.875 19.5Z" stroke="white" stroke-width="1.5" stroke-miterlimit="10" stroke-linecap="round" stroke-linejoin="round"/>
</svg>
