<svg width="46" height="46" viewBox="0 0 46 46" fill="none" xmlns="http://www.w3.org/2000/svg">
<rect width="46" height="46" rx="23" fill="#0098EA"/>
<path d="M30.8556 12.65H15.1486C12.2606 12.65 10.4301 15.7653 11.883 18.2837L21.5769 35.0859C22.2094 36.1829 23.7948 36.1829 24.4273 35.0859L34.1232 18.2837C35.5741 15.7693 33.7436 12.65 30.8576 12.65H30.8556ZM21.569 30.0472L19.4578 25.9613L14.3638 16.8506C14.0278 16.2674 14.4429 15.5202 15.1466 15.5202H21.567V30.0492L21.569 30.0472ZM31.6364 16.8486L26.5444 25.9633L24.4333 30.0472V15.5183H30.8537C31.5574 15.5183 31.9725 16.2655 31.6364 16.8486Z" fill="white"/>
</svg>
