<svg width="13" height="13" viewBox="0 0 13 13" fill="none" xmlns="http://www.w3.org/2000/svg">
<path d="M8.66659 6.98751V9.26251C8.66659 11.1583 7.90825 11.9167 6.01242 11.9167H3.73742C1.84159 11.9167 1.08325 11.1583 1.08325 9.26251V6.98751C1.08325 5.09168 1.84159 4.33334 3.73742 4.33334H6.01242C7.90825 4.33334 8.66659 5.09168 8.66659 6.98751Z" stroke="#65656A" stroke-linecap="round" stroke-linejoin="round"/>
<path d="M11.9166 3.73751V6.01251C11.9166 7.90834 11.1583 8.66668 9.26242 8.66668H8.66659V6.98751C8.66659 5.09168 7.90825 4.33334 6.01242 4.33334H4.33325V3.73751C4.33325 1.84168 5.09159 1.08334 6.98742 1.08334H9.26242C11.1583 1.08334 11.9166 1.84168 11.9166 3.73751Z" stroke="#65656A" stroke-linecap="round" stroke-linejoin="round"/>
</svg>
