<svg width="41" height="61" viewBox="0 0 41 61" fill="none" xmlns="http://www.w3.org/2000/svg">
<path d="M20.4167 40.8333C31.6925 40.8333 40.8333 31.6925 40.8333 20.4167C40.8333 9.14085 31.6925 0 20.4167 0C9.14085 0 0 9.14085 0 20.4167C0 31.6925 9.14085 40.8333 20.4167 40.8333Z" fill="#07ACFF"/>
<path d="M20.3177 9.24585L30.0677 13.1458C30.4468 13.2975 30.7502 13.7525 30.7502 14.1533V17.75C30.7502 18.3458 30.2627 18.8333 29.6668 18.8333H10.1668C9.571 18.8333 9.0835 18.3458 9.0835 17.75V14.1533C9.0835 13.7525 9.38683 13.2975 9.766 13.1458L19.516 9.24585C19.7327 9.15918 20.101 9.15918 20.3177 9.24585Z" stroke="white" stroke-width="1.5" stroke-miterlimit="10" stroke-linecap="round" stroke-linejoin="round"/>
<path d="M30.7502 30.75H9.0835V27.5C9.0835 26.9042 9.571 26.4167 10.1668 26.4167H29.6668C30.2627 26.4167 30.7502 26.9042 30.7502 27.5V30.75Z" stroke="white" stroke-width="1.5" stroke-miterlimit="10" stroke-linecap="round" stroke-linejoin="round"/>
<path d="M11.25 26.4166V18.8333" stroke="white" stroke-width="1.5" stroke-miterlimit="10" stroke-linecap="round" stroke-linejoin="round"/>
<path d="M15.5835 26.4166V18.8333" stroke="white" stroke-width="1.5" stroke-miterlimit="10" stroke-linecap="round" stroke-linejoin="round"/>
<path d="M19.9167 26.4166V18.8333" stroke="white" stroke-width="1.5" stroke-miterlimit="10" stroke-linecap="round" stroke-linejoin="round"/>
<path d="M24.25 26.4166V18.8333" stroke="white" stroke-width="1.5" stroke-miterlimit="10" stroke-linecap="round" stroke-linejoin="round"/>
<path d="M28.5835 26.4166V18.8333" stroke="white" stroke-width="1.5" stroke-miterlimit="10" stroke-linecap="round" stroke-linejoin="round"/>
<path d="M8 30.75H31.8333" stroke="white" stroke-width="1.5" stroke-miterlimit="10" stroke-linecap="round" stroke-linejoin="round"/>
<path d="M19.9167 16.125C20.8142 16.125 21.5417 15.3975 21.5417 14.5C21.5417 13.6025 20.8142 12.875 19.9167 12.875C19.0193 12.875 18.2917 13.6025 18.2917 14.5C18.2917 15.3975 19.0193 16.125 19.9167 16.125Z" stroke="white" stroke-width="1.5" stroke-miterlimit="10" stroke-linecap="round" stroke-linejoin="round"/>
<path d="M10.0664 54.1445H7.89258L7.88086 53.0723H9.7793C10.0996 53.0723 10.3711 53.0254 10.5938 52.9316C10.8203 52.834 10.9922 52.6953 11.1094 52.5156C11.2266 52.332 11.2852 52.1113 11.2852 51.8535C11.2852 51.5684 11.2305 51.3359 11.1211 51.1562C11.0117 50.9766 10.8438 50.8457 10.6172 50.7637C10.3945 50.6816 10.1094 50.6406 9.76172 50.6406H8.33789V58H6.86719V49.4688H9.76172C10.2305 49.4688 10.6484 49.5137 11.0156 49.6035C11.3867 49.6934 11.7012 49.834 11.959 50.0254C12.2207 50.2129 12.418 50.4512 12.5508 50.7402C12.6875 51.0293 12.7559 51.373 12.7559 51.7715C12.7559 52.123 12.6719 52.4453 12.5039 52.7383C12.3359 53.0273 12.0879 53.2637 11.7598 53.4473C11.4316 53.6309 11.0234 53.7402 10.5352 53.7754L10.0664 54.1445ZM10.002 58H7.42969L8.0918 56.834H10.002C10.334 56.834 10.6113 56.7793 10.834 56.6699C11.0566 56.5566 11.2227 56.4023 11.332 56.207C11.4453 56.0078 11.502 55.7754 11.502 55.5098C11.502 55.2324 11.4531 54.9922 11.3555 54.7891C11.2578 54.582 11.1035 54.4238 10.8926 54.3145C10.6816 54.2012 10.4062 54.1445 10.0664 54.1445H8.41406L8.42578 53.0723H10.5762L10.9102 53.4766C11.3789 53.4922 11.7637 53.5957 12.0645 53.7871C12.3691 53.9785 12.5957 54.2266 12.7441 54.5312C12.8926 54.8359 12.9668 55.1641 12.9668 55.5156C12.9668 56.0586 12.8477 56.5137 12.6094 56.8809C12.375 57.248 12.0371 57.5273 11.5957 57.7188C11.1543 57.9062 10.623 58 10.002 58ZM17.8828 56.7285V53.7051C17.8828 53.4785 17.8418 53.2832 17.7598 53.1191C17.6777 52.9551 17.5527 52.8281 17.3848 52.7383C17.2207 52.6484 17.0137 52.6035 16.7637 52.6035C16.5332 52.6035 16.334 52.6426 16.166 52.7207C15.998 52.7988 15.8672 52.9043 15.7734 53.0371C15.6797 53.1699 15.6328 53.3203 15.6328 53.4883H14.2266C14.2266 53.2383 14.2871 52.9961 14.4082 52.7617C14.5293 52.5273 14.7051 52.3184 14.9355 52.1348C15.166 51.9512 15.4414 51.8066 15.7617 51.7012C16.082 51.5957 16.4414 51.543 16.8398 51.543C17.3164 51.543 17.7383 51.623 18.1055 51.7832C18.4766 51.9434 18.7676 52.1855 18.9785 52.5098C19.1934 52.8301 19.3008 53.2324 19.3008 53.7168V56.5352C19.3008 56.8242 19.3203 57.084 19.3594 57.3145C19.4023 57.541 19.4629 57.7383 19.541 57.9062V58H18.0938C18.0273 57.8477 17.9746 57.6543 17.9355 57.4199C17.9004 57.1816 17.8828 56.9512 17.8828 56.7285ZM18.0879 54.1445L18.0996 55.0176H17.0859C16.8242 55.0176 16.5938 55.043 16.3945 55.0938C16.1953 55.1406 16.0293 55.2109 15.8965 55.3047C15.7637 55.3984 15.6641 55.5117 15.5977 55.6445C15.5312 55.7773 15.498 55.9277 15.498 56.0957C15.498 56.2637 15.5371 56.418 15.6152 56.5586C15.6934 56.6953 15.8066 56.8027 15.9551 56.8809C16.1074 56.959 16.291 56.998 16.5059 56.998C16.7949 56.998 17.0469 56.9395 17.2617 56.8223C17.4805 56.7012 17.6523 56.5547 17.7773 56.3828C17.9023 56.207 17.9688 56.041 17.9766 55.8848L18.4336 56.5117C18.3867 56.6719 18.3066 56.8438 18.1934 57.0273C18.0801 57.2109 17.9316 57.3867 17.748 57.5547C17.5684 57.7188 17.3516 57.8535 17.0977 57.959C16.8477 58.0645 16.5586 58.1172 16.2305 58.1172C15.8164 58.1172 15.4473 58.0352 15.123 57.8711C14.7988 57.7031 14.5449 57.4785 14.3613 57.1973C14.1777 56.9121 14.0859 56.5898 14.0859 56.2305C14.0859 55.8945 14.1484 55.5977 14.2734 55.3398C14.4023 55.0781 14.5898 54.8594 14.8359 54.6836C15.0859 54.5078 15.3906 54.375 15.75 54.2852C16.1094 54.1914 16.5195 54.1445 16.9805 54.1445H18.0879ZM22.1777 53.0137V58H20.7656V51.6602H22.0957L22.1777 53.0137ZM21.9258 54.5957L21.4688 54.5898C21.4727 54.1406 21.5352 53.7285 21.6562 53.3535C21.7812 52.9785 21.9531 52.6562 22.1719 52.3867C22.3945 52.1172 22.6602 51.9102 22.9688 51.7656C23.2773 51.6172 23.6211 51.543 24 51.543C24.3047 51.543 24.5801 51.5859 24.8262 51.6719C25.0762 51.7539 25.2891 51.8887 25.4648 52.0762C25.6445 52.2637 25.7812 52.5078 25.875 52.8086C25.9688 53.1055 26.0156 53.4707 26.0156 53.9043V58H24.5977V53.8984C24.5977 53.5938 24.5527 53.3535 24.4629 53.1777C24.377 52.998 24.25 52.8711 24.082 52.7969C23.918 52.7188 23.7129 52.6797 23.4668 52.6797C23.2246 52.6797 23.0078 52.7305 22.8164 52.832C22.625 52.9336 22.4629 53.0723 22.3301 53.248C22.2012 53.4238 22.1016 53.627 22.0312 53.8574C21.9609 54.0879 21.9258 54.334 21.9258 54.5957ZM28.8809 49V58H27.4629V49H28.8809ZM32.8184 51.6602L30.0586 54.7188L28.5469 56.2656L28.1777 55.0703L29.3203 53.6582L31.1133 51.6602H32.8184ZM31.418 58L29.3613 55.0234L30.252 54.0332L33.0527 58H31.418Z" fill="#07ACFF"/>
</svg>
