<svg width="50" height="66" viewBox="0 0 50 66" fill="none" xmlns="http://www.w3.org/2000/svg">
<path d="M44.9967 25.4183C44.9967 14.1434 35.8566 5.00334 24.5817 5.00334C13.3069 5.00334 4.16675 14.1434 4.16675 25.4183C4.16675 36.6932 13.3069 45.8333 24.5817 45.8333C35.8566 45.8333 44.9967 36.6932 44.9967 25.4183Z" fill="#07ACFF"/>
<path d="M18.0664 59.1445H15.8926L15.8809 58.0723H17.7793C18.0996 58.0723 18.3711 58.0254 18.5938 57.9316C18.8203 57.834 18.9922 57.6953 19.1094 57.5156C19.2266 57.332 19.2852 57.1113 19.2852 56.8535C19.2852 56.5684 19.2305 56.3359 19.1211 56.1562C19.0117 55.9766 18.8438 55.8457 18.6172 55.7637C18.3945 55.6816 18.1094 55.6406 17.7617 55.6406H16.3379V63H14.8672V54.4688H17.7617C18.2305 54.4688 18.6484 54.5137 19.0156 54.6035C19.3867 54.6934 19.7012 54.834 19.959 55.0254C20.2207 55.2129 20.418 55.4512 20.5508 55.7402C20.6875 56.0293 20.7559 56.373 20.7559 56.7715C20.7559 57.123 20.6719 57.4453 20.5039 57.7383C20.3359 58.0273 20.0879 58.2637 19.7598 58.4473C19.4316 58.6309 19.0234 58.7402 18.5352 58.7754L18.0664 59.1445ZM18.002 63H15.4297L16.0918 61.834H18.002C18.334 61.834 18.6113 61.7793 18.834 61.6699C19.0566 61.5566 19.2227 61.4023 19.332 61.207C19.4453 61.0078 19.502 60.7754 19.502 60.5098C19.502 60.2324 19.4531 59.9922 19.3555 59.7891C19.2578 59.582 19.1035 59.4238 18.8926 59.3145C18.6816 59.2012 18.4062 59.1445 18.0664 59.1445H16.4141L16.4258 58.0723H18.5762L18.9102 58.4766C19.3789 58.4922 19.7637 58.5957 20.0645 58.7871C20.3691 58.9785 20.5957 59.2266 20.7441 59.5312C20.8926 59.8359 20.9668 60.1641 20.9668 60.5156C20.9668 61.0586 20.8477 61.5137 20.6094 61.8809C20.375 62.248 20.0371 62.5273 19.5957 62.7188C19.1543 62.9062 18.623 63 18.002 63ZM26.123 61.5059V56.6602H27.541V63H26.2051L26.123 61.5059ZM26.3223 60.1875L26.7969 60.1758C26.7969 60.6016 26.75 60.9941 26.6562 61.3535C26.5625 61.709 26.418 62.0195 26.2227 62.2852C26.0273 62.5469 25.7773 62.752 25.4727 62.9004C25.168 63.0449 24.8027 63.1172 24.377 63.1172C24.0684 63.1172 23.7852 63.0723 23.5273 62.9824C23.2695 62.8926 23.0469 62.7539 22.8594 62.5664C22.6758 62.3789 22.5332 62.1348 22.4316 61.834C22.3301 61.5332 22.2793 61.1738 22.2793 60.7559V56.6602H23.6914V60.7676C23.6914 60.998 23.7188 61.1914 23.7734 61.3477C23.8281 61.5 23.9023 61.623 23.9961 61.7168C24.0898 61.8105 24.1992 61.877 24.3242 61.916C24.4492 61.9551 24.582 61.9746 24.7227 61.9746C25.125 61.9746 25.4414 61.8965 25.6719 61.7402C25.9062 61.5801 26.0723 61.3652 26.1699 61.0957C26.2715 60.8262 26.3223 60.5234 26.3223 60.1875ZM30.8281 62.3086L32.5508 56.6602H34.0625L31.5195 63.9668C31.4609 64.123 31.3848 64.293 31.291 64.4766C31.1973 64.6602 31.0742 64.834 30.9219 64.998C30.7734 65.166 30.5879 65.3008 30.3652 65.4023C30.1426 65.5078 29.873 65.5605 29.5566 65.5605C29.4316 65.5605 29.3105 65.5488 29.1934 65.5254C29.0801 65.5059 28.9727 65.4844 28.8711 65.4609L28.8652 64.3828C28.9043 64.3867 28.9512 64.3906 29.0059 64.3945C29.0645 64.3984 29.1113 64.4004 29.1465 64.4004C29.3809 64.4004 29.5762 64.3711 29.7324 64.3125C29.8887 64.2578 30.0156 64.168 30.1133 64.043C30.2148 63.918 30.3008 63.75 30.3711 63.5391L30.8281 62.3086ZM29.8555 56.6602L31.3613 61.4062L31.6133 62.8945L30.6348 63.1465L28.332 56.6602H29.8555Z" fill="#07ACFF"/>
<path d="M23.0955 29.9679V32.2517C23.0955 34.1867 21.2955 35.7504 19.0793 35.7504C16.863 35.7504 15.0518 34.1867 15.0518 32.2517V29.9679C15.0518 31.9029 16.8518 33.2754 19.0793 33.2754C21.2955 33.2754 23.0955 31.8916 23.0955 29.9679Z" stroke="white" stroke-width="1.5" stroke-linecap="round" stroke-linejoin="round"/>
<path d="M23.0938 26.8737C23.0938 27.4362 22.9363 27.9537 22.6663 28.4037C22.0025 29.495 20.6413 30.1812 19.0663 30.1812C17.4913 30.1812 16.13 29.4837 15.4663 28.4037C15.1963 27.9537 15.0388 27.4362 15.0388 26.8737C15.0388 25.9062 15.4888 25.04 16.2088 24.41C16.94 23.7687 17.9413 23.3863 19.055 23.3863C20.1688 23.3863 21.17 23.78 21.9013 24.41C22.6438 25.0287 23.0938 25.9062 23.0938 26.8737Z" stroke="white" stroke-width="1.5" stroke-linecap="round" stroke-linejoin="round"/>
<path d="M23.0955 26.8737V29.9675C23.0955 31.9025 21.2955 33.275 19.0793 33.275C16.863 33.275 15.0518 31.8912 15.0518 29.9675V26.8737C15.0518 24.9387 16.8518 23.375 19.0793 23.375C20.193 23.375 21.1943 23.7687 21.9256 24.3987C22.6456 25.0287 23.0955 25.9062 23.0955 26.8737Z" stroke="white" stroke-width="1.5" stroke-linecap="round" stroke-linejoin="round"/>
<path d="M35.75 23.3412V25.6588C35.75 26.2775 35.255 26.7837 34.625 26.8062H32.42C31.205 26.8062 30.0913 25.9175 29.99 24.7025C29.9225 23.9937 30.1925 23.33 30.665 22.8687C31.0812 22.4412 31.655 22.1938 32.285 22.1938H34.625C35.255 22.2163 35.75 22.7225 35.75 23.3412Z" stroke="white" stroke-width="1.5" stroke-linecap="round" stroke-linejoin="round"/>
<path d="M13.25 22.8125V20.5625C13.25 17.5025 15.095 15.365 17.9638 15.005C18.2563 14.96 18.56 14.9375 18.875 14.9375H29C29.2925 14.9375 29.5738 14.9487 29.8438 14.9937C32.7462 15.3312 34.625 17.48 34.625 20.5625V22.1938H32.285C31.655 22.1938 31.0812 22.4412 30.665 22.8687C30.1925 23.33 29.9225 23.9937 29.99 24.7025C30.0913 25.9175 31.205 26.8062 32.42 26.8062H34.625V28.4375C34.625 31.8125 32.375 34.0625 29 34.0625H26.1875" stroke="white" stroke-width="1.5" stroke-linecap="round" stroke-linejoin="round"/>
</svg>
