<svg width="99" height="66" viewBox="0 0 99 66" fill="none" xmlns="http://www.w3.org/2000/svg">
<path d="M50.125 21H44.125" stroke="#65656A" stroke-width="1.5" stroke-linecap="round" stroke-linejoin="round"/>
<path d="M59.125 22.9702V25.0302C59.125 25.5802 58.685 26.0302 58.125 26.0502H56.165C55.085 26.0502 54.095 25.2602 54.005 24.1802C53.945 23.5502 54.185 22.9602 54.605 22.5502C54.975 22.1702 55.485 21.9502 56.045 21.9502H58.125C58.685 21.9702 59.125 22.4202 59.125 22.9702Z" stroke="#65656A" stroke-width="1.5" stroke-linecap="round" stroke-linejoin="round"/>
<path d="M54.605 22.55C54.185 22.96 53.945 23.55 54.005 24.18C54.095 25.26 55.085 26.05 56.165 26.05H58.125V27.5C58.125 30.5 56.125 32.5 53.125 32.5H44.125C41.125 32.5 39.125 30.5 39.125 27.5V20.5C39.125 17.78 40.765 15.88 43.315 15.56C43.575 15.52 43.845 15.5 44.125 15.5H53.125C53.385 15.5 53.635 15.51 53.875 15.55C56.455 15.85 58.125 17.76 58.125 20.5V21.95H56.045C55.485 21.95 54.975 22.17 54.605 22.55Z" stroke="#65656A" stroke-width="1.5" stroke-linecap="round" stroke-linejoin="round"/>
<path d="M34.9375 49.084L36.6367 42.4688H37.5273L37.4277 44.1738L35.6113 51H34.6855L34.9375 49.084ZM33.666 42.4688L35.043 49.0312L35.166 51H34.1816L32.207 42.4688H33.666ZM39.4551 49.0137L40.8145 42.4688H42.2793L40.3047 51H39.3203L39.4551 49.0137ZM37.873 42.4688L39.5547 49.1016L39.8008 51H38.875L37.0879 44.1738L36.9941 42.4688H37.873ZM46.8035 49.7285V46.7051C46.8035 46.4785 46.7625 46.2832 46.6805 46.1191C46.5984 45.9551 46.4734 45.8281 46.3055 45.7383C46.1414 45.6484 45.9344 45.6035 45.6844 45.6035C45.4539 45.6035 45.2547 45.6426 45.0867 45.7207C44.9188 45.7988 44.7879 45.9043 44.6941 46.0371C44.6004 46.1699 44.5535 46.3203 44.5535 46.4883H43.1473C43.1473 46.2383 43.2078 45.9961 43.3289 45.7617C43.45 45.5273 43.6258 45.3184 43.8563 45.1348C44.0867 44.9512 44.3621 44.8066 44.6824 44.7012C45.0027 44.5957 45.3621 44.543 45.7605 44.543C46.2371 44.543 46.659 44.623 47.0262 44.7832C47.3973 44.9434 47.6883 45.1855 47.8992 45.5098C48.1141 45.8301 48.2215 46.2324 48.2215 46.7168V49.5352C48.2215 49.8242 48.241 50.084 48.2801 50.3145C48.323 50.541 48.3836 50.7383 48.4617 50.9062V51H47.0145C46.948 50.8477 46.8953 50.6543 46.8563 50.4199C46.8211 50.1816 46.8035 49.9512 46.8035 49.7285ZM47.0086 47.1445L47.0203 48.0176H46.0066C45.7449 48.0176 45.5145 48.043 45.3152 48.0938C45.116 48.1406 44.95 48.2109 44.8172 48.3047C44.6844 48.3984 44.5848 48.5117 44.5184 48.6445C44.452 48.7773 44.4188 48.9277 44.4188 49.0957C44.4188 49.2637 44.4578 49.418 44.5359 49.5586C44.6141 49.6953 44.7273 49.8027 44.8758 49.8809C45.0281 49.959 45.2117 49.998 45.4266 49.998C45.7156 49.998 45.9676 49.9395 46.1824 49.8223C46.4012 49.7012 46.573 49.5547 46.698 49.3828C46.823 49.207 46.8895 49.041 46.8973 48.8848L47.3543 49.5117C47.3074 49.6719 47.2273 49.8438 47.1141 50.0273C47.0008 50.2109 46.8523 50.3867 46.6688 50.5547C46.4891 50.7188 46.2723 50.8535 46.0184 50.959C45.7684 51.0645 45.4793 51.1172 45.1512 51.1172C44.7371 51.1172 44.368 51.0352 44.0438 50.8711C43.7195 50.7031 43.4656 50.4785 43.282 50.1973C43.0984 49.9121 43.0066 49.5898 43.0066 49.2305C43.0066 48.8945 43.0691 48.5977 43.1941 48.3398C43.323 48.0781 43.5105 47.8594 43.7566 47.6836C44.0066 47.5078 44.3113 47.375 44.6707 47.2852C45.0301 47.1914 45.4402 47.1445 45.9012 47.1445H47.0086ZM51.4098 42V51H49.9918V42H51.4098ZM54.6684 42V51H53.2504V42H54.6684ZM59.2102 51.1172C58.7414 51.1172 58.3176 51.041 57.9387 50.8887C57.5637 50.7324 57.2434 50.5156 56.9777 50.2383C56.716 49.9609 56.5148 49.6348 56.3742 49.2598C56.2336 48.8848 56.1633 48.4805 56.1633 48.0469V47.8125C56.1633 47.3164 56.2355 46.8672 56.3801 46.4648C56.5246 46.0625 56.7258 45.7188 56.9836 45.4336C57.2414 45.1445 57.5461 44.9238 57.8977 44.7715C58.2492 44.6191 58.6301 44.543 59.0402 44.543C59.4934 44.543 59.8898 44.6191 60.2297 44.7715C60.5695 44.9238 60.8508 45.1387 61.0734 45.416C61.3 45.6895 61.468 46.0156 61.5773 46.3945C61.6906 46.7734 61.7473 47.1914 61.7473 47.6484V48.252H56.8488V47.2383H60.3527V47.127C60.3449 46.873 60.2941 46.6348 60.2004 46.4121C60.1105 46.1895 59.9719 46.0098 59.7844 45.873C59.5969 45.7363 59.3469 45.668 59.0344 45.668C58.8 45.668 58.591 45.7188 58.4074 45.8203C58.2277 45.918 58.0773 46.0605 57.9562 46.248C57.8352 46.4355 57.7414 46.6621 57.675 46.9277C57.6125 47.1895 57.5812 47.4844 57.5812 47.8125V48.0469C57.5812 48.3242 57.6184 48.582 57.6926 48.8203C57.7707 49.0547 57.884 49.2598 58.0324 49.4355C58.1809 49.6113 58.3605 49.75 58.5715 49.8516C58.7824 49.9492 59.0227 49.998 59.2922 49.998C59.632 49.998 59.9348 49.9297 60.2004 49.793C60.466 49.6562 60.6965 49.4629 60.8918 49.2129L61.6359 49.9336C61.4992 50.1328 61.3215 50.3242 61.1027 50.5078C60.884 50.6875 60.6164 50.834 60.3 50.9473C59.9875 51.0605 59.6242 51.1172 59.2102 51.1172ZM65.9551 44.6602V45.6914H62.3809V44.6602H65.9551ZM63.4121 43.1074H64.8242V49.248C64.8242 49.4434 64.8516 49.5938 64.9062 49.6992C64.9648 49.8008 65.0449 49.8691 65.1465 49.9043C65.248 49.9395 65.3672 49.957 65.5039 49.957C65.6016 49.957 65.6953 49.9512 65.7852 49.9395C65.875 49.9277 65.9473 49.916 66.002 49.9043L66.0078 50.9824C65.8906 51.0176 65.7539 51.0488 65.5977 51.0762C65.4453 51.1035 65.2695 51.1172 65.0703 51.1172C64.7461 51.1172 64.459 51.0605 64.209 50.9473C63.959 50.8301 63.7637 50.6406 63.623 50.3789C63.4824 50.1172 63.4121 49.7695 63.4121 49.3359V43.1074Z" fill="#65656A"/>
</svg>
