<svg width="41" height="41" viewBox="0 0 41 41" fill="none" xmlns="http://www.w3.org/2000/svg">
<path d="M20.4167 40.8333C31.6925 40.8333 40.8333 31.6925 40.8333 20.4167C40.8333 9.14085 31.6925 0 20.4167 0C9.14085 0 0 9.14085 0 20.4167C0 31.6925 9.14085 40.8333 20.4167 40.8333Z" fill="#07ACFF"/>
<path d="M20.3177 9.24585L30.0677 13.1458C30.4468 13.2975 30.7502 13.7525 30.7502 14.1533V17.75C30.7502 18.3458 30.2627 18.8333 29.6668 18.8333H10.1668C9.571 18.8333 9.0835 18.3458 9.0835 17.75V14.1533C9.0835 13.7525 9.38683 13.2975 9.766 13.1458L19.516 9.24585C19.7327 9.15918 20.101 9.15918 20.3177 9.24585Z" stroke="white" stroke-width="1.5" stroke-miterlimit="10" stroke-linecap="round" stroke-linejoin="round"/>
<path d="M30.7502 30.75H9.0835V27.5C9.0835 26.9042 9.571 26.4167 10.1668 26.4167H29.6668C30.2627 26.4167 30.7502 26.9042 30.7502 27.5V30.75Z" stroke="white" stroke-width="1.5" stroke-miterlimit="10" stroke-linecap="round" stroke-linejoin="round"/>
<path d="M11.25 26.4166V18.8333" stroke="white" stroke-width="1.5" stroke-miterlimit="10" stroke-linecap="round" stroke-linejoin="round"/>
<path d="M15.5835 26.4166V18.8333" stroke="white" stroke-width="1.5" stroke-miterlimit="10" stroke-linecap="round" stroke-linejoin="round"/>
<path d="M19.9167 26.4166V18.8333" stroke="white" stroke-width="1.5" stroke-miterlimit="10" stroke-linecap="round" stroke-linejoin="round"/>
<path d="M24.25 26.4166V18.8333" stroke="white" stroke-width="1.5" stroke-miterlimit="10" stroke-linecap="round" stroke-linejoin="round"/>
<path d="M28.5835 26.4166V18.8333" stroke="white" stroke-width="1.5" stroke-miterlimit="10" stroke-linecap="round" stroke-linejoin="round"/>
<path d="M8 30.75H31.8333" stroke="white" stroke-width="1.5" stroke-miterlimit="10" stroke-linecap="round" stroke-linejoin="round"/>
<path d="M19.9167 16.125C20.8142 16.125 21.5417 15.3975 21.5417 14.5C21.5417 13.6025 20.8142 12.875 19.9167 12.875C19.0193 12.875 18.2917 13.6025 18.2917 14.5C18.2917 15.3975 19.0193 16.125 19.9167 16.125Z" stroke="white" stroke-width="1.5" stroke-miterlimit="10" stroke-linecap="round" stroke-linejoin="round"/>
</svg>
