<svg width="47" height="46" viewBox="0 0 47 46" fill="none" xmlns="http://www.w3.org/2000/svg">
<rect x="0.699951" width="46" height="46" rx="23" fill="#07ACFF"/>
<path d="M24.0699 13.1498L33.0699 16.7498C33.4199 16.8898 33.7 17.3098 33.7 17.6798V20.9998C33.7 21.5498 33.25 21.9998 32.7 21.9998H14.7C14.15 21.9998 13.7 21.5498 13.7 20.9998V17.6798C13.7 17.3098 13.98 16.8898 14.33 16.7498L23.33 13.1498C23.53 13.0698 23.8699 13.0698 24.0699 13.1498Z" stroke="white" stroke-width="1.5" stroke-miterlimit="10" stroke-linecap="round" stroke-linejoin="round"/>
<path d="M33.7 33H13.7V30C13.7 29.45 14.15 29 14.7 29H32.7C33.25 29 33.7 29.45 33.7 30V33Z" stroke="white" stroke-width="1.5" stroke-miterlimit="10" stroke-linecap="round" stroke-linejoin="round"/>
<path d="M15.7 29V22" stroke="white" stroke-width="1.5" stroke-miterlimit="10" stroke-linecap="round" stroke-linejoin="round"/>
<path d="M19.7 29V22" stroke="white" stroke-width="1.5" stroke-miterlimit="10" stroke-linecap="round" stroke-linejoin="round"/>
<path d="M23.7 29V22" stroke="white" stroke-width="1.5" stroke-miterlimit="10" stroke-linecap="round" stroke-linejoin="round"/>
<path d="M27.7 29V22" stroke="white" stroke-width="1.5" stroke-miterlimit="10" stroke-linecap="round" stroke-linejoin="round"/>
<path d="M31.7 29V22" stroke="white" stroke-width="1.5" stroke-miterlimit="10" stroke-linecap="round" stroke-linejoin="round"/>
<path d="M12.7 33H34.7" stroke="white" stroke-width="1.5" stroke-miterlimit="10" stroke-linecap="round" stroke-linejoin="round"/>
<path d="M23.7 19.5C24.5284 19.5 25.2 18.8284 25.2 18C25.2 17.1716 24.5284 16.5 23.7 16.5C22.8715 16.5 22.2 17.1716 22.2 18C22.2 18.8284 22.8715 19.5 23.7 19.5Z" stroke="white" stroke-width="1.5" stroke-miterlimit="10" stroke-linecap="round" stroke-linejoin="round"/>
</svg>
