<svg width="24" height="23" viewBox="0 0 24 23" fill="none" xmlns="http://www.w3.org/2000/svg">
<rect width="24" height="23" fill="white"/>
<path d="M20 12.1C20.6075 12.1 21.1 11.6075 21.1 11C21.1 10.3925 20.6075 9.9 20 9.9L20 12.1ZM4.22218 10.2222C3.79261 10.6518 3.79261 11.3482 4.22218 11.7778L11.2225 18.7782C11.6521 19.2078 12.3486 19.2078 12.7782 18.7782C13.2078 18.3486 13.2078 17.6521 12.7782 17.2225L6.55563 11L12.7782 4.77746C13.2078 4.34788 13.2078 3.6514 12.7782 3.22182C12.3486 2.79225 11.6521 2.79225 11.2225 3.22182L4.22218 10.2222ZM20 9.9L5 9.9L5 12.1L20 12.1L20 9.9Z" fill="#5C5C5C"/>
</svg>
