<svg width="35" height="35" viewBox="0 0 35 35" fill="none" xmlns="http://www.w3.org/2000/svg">
<path d="M13.3587 15.8524C13.2129 15.8378 13.0379 15.8378 12.8775 15.8524C9.40664 15.7357 6.65039 12.892 6.65039 9.39199C6.65039 5.81908 9.53789 2.91699 13.1254 2.91699C16.6983 2.91699 19.6004 5.81908 19.6004 9.39199C19.5858 12.892 16.8296 15.7357 13.3587 15.8524Z" stroke="white" stroke-width="1.8" stroke-linecap="round" stroke-linejoin="round"/>
<path d="M23.9318 5.83301C26.7609 5.83301 29.0359 8.12259 29.0359 10.9372C29.0359 13.6934 26.8484 15.9393 24.1214 16.0413C24.0047 16.0268 23.8734 16.0268 23.7422 16.0413" stroke="white" stroke-width="1.8" stroke-linecap="round" stroke-linejoin="round"/>
<path d="M6.06728 21.233C2.53812 23.5955 2.53812 27.4455 6.06728 29.7934C10.0777 32.4768 16.6548 32.4768 20.6652 29.7934C24.1944 27.4309 24.1944 23.5809 20.6652 21.233C16.6694 18.5643 10.0923 18.5643 6.06728 21.233Z" stroke="white" stroke-width="1.8" stroke-linecap="round" stroke-linejoin="round"/>
<path d="M26.7456 29.167C27.7956 28.9482 28.7873 28.5253 29.6039 27.8982C31.8789 26.192 31.8789 23.3774 29.6039 21.6712C28.8019 21.0587 27.8248 20.6503 26.7894 20.417" stroke="white" stroke-width="1.8" stroke-linecap="round" stroke-linejoin="round"/>
</svg>
