<svg width="42" height="42" viewBox="0 0 42 42" fill="none" xmlns="http://www.w3.org/2000/svg">
<path d="M21.647 3.76271L37.397 10.0627C38.0095 10.3077 38.4995 11.0427 38.4995 11.6902V17.5002C38.4995 18.4627 37.712 19.2502 36.7495 19.2502H5.24951C4.28701 19.2502 3.49951 18.4627 3.49951 17.5002V11.6902C3.49951 11.0427 3.98952 10.3077 4.60202 10.0627L20.352 3.76271C20.702 3.62271 21.297 3.62271 21.647 3.76271Z" stroke="#07ACFF" stroke-width="3" stroke-miterlimit="10" stroke-linecap="round" stroke-linejoin="round"/>
<path d="M38.4995 38.5H3.49951V33.25C3.49951 32.2875 4.28701 31.5 5.24951 31.5H36.7495C37.712 31.5 38.4995 32.2875 38.4995 33.25V38.5Z" stroke="#07ACFF" stroke-width="3" stroke-miterlimit="10" stroke-linecap="round" stroke-linejoin="round"/>
<path d="M7.00049 31.5V19.25" stroke="#07ACFF" stroke-width="3" stroke-miterlimit="10" stroke-linecap="round" stroke-linejoin="round"/>
<path d="M13.9995 31.5V19.25" stroke="#07ACFF" stroke-width="3" stroke-miterlimit="10" stroke-linecap="round" stroke-linejoin="round"/>
<path d="M21 31.5V19.25" stroke="#07ACFF" stroke-width="3" stroke-miterlimit="10" stroke-linecap="round" stroke-linejoin="round"/>
<path d="M28.0005 31.5V19.25" stroke="#07ACFF" stroke-width="3" stroke-miterlimit="10" stroke-linecap="round" stroke-linejoin="round"/>
<path d="M34.9995 31.5V19.25" stroke="#07ACFF" stroke-width="3" stroke-miterlimit="10" stroke-linecap="round" stroke-linejoin="round"/>
<path d="M1.75049 38.5H40.2505" stroke="#07ACFF" stroke-width="3" stroke-miterlimit="10" stroke-linecap="round" stroke-linejoin="round"/>
<path d="M21 14.875C22.4497 14.875 23.625 13.6997 23.625 12.25C23.625 10.8003 22.4497 9.625 21 9.625C19.5503 9.625 18.375 10.8003 18.375 12.25C18.375 13.6997 19.5503 14.875 21 14.875Z" stroke="#07ACFF" stroke-width="3" stroke-miterlimit="10" stroke-linecap="round" stroke-linejoin="round"/>
</svg>
