<svg width="99" height="66" viewBox="0 0 99 66" fill="none" xmlns="http://www.w3.org/2000/svg">
<path d="M59.625 20.5C59.625 24.09 56.715 27 53.125 27C52.955 27 52.775 26.99 52.605 26.98C52.355 23.81 49.815 21.27 46.645 21.02C46.635 20.85 46.625 20.67 46.625 20.5C46.625 16.91 49.535 14 53.125 14C56.715 14 59.625 16.91 59.625 20.5Z" stroke="#65656A" stroke-width="1.5" stroke-linecap="round" stroke-linejoin="round"/>
<path d="M52.625 27.5C52.625 31.09 49.715 34 46.125 34C42.535 34 39.625 31.09 39.625 27.5C39.625 23.91 42.535 21 46.125 21C46.295 21 46.475 21.01 46.645 21.02C49.815 21.27 52.355 23.81 52.605 26.98C52.615 27.15 52.625 27.33 52.625 27.5Z" stroke="#65656A" stroke-width="1.5" stroke-linecap="round" stroke-linejoin="round"/>
<path d="M43.215 14H40.625C40.075 14 39.625 14.45 39.625 15V17.59C39.625 18.48 40.705 18.93 41.335 18.3L43.925 15.71C44.545 15.08 44.105 14 43.215 14Z" stroke="#65656A" stroke-width="1.5" stroke-linecap="round" stroke-linejoin="round"/>
<path d="M56.035 34.0003H58.625C59.175 34.0003 59.625 33.5503 59.625 33.0003V30.4103C59.625 29.5203 58.545 29.0703 57.915 29.7003L55.325 32.2903C54.705 32.9203 55.145 34.0003 56.035 34.0003Z" stroke="#65656A" stroke-width="1.5" stroke-linecap="round" stroke-linejoin="round"/>
<path d="M39.9852 48.8027C39.9852 48.627 39.9578 48.4707 39.9031 48.334C39.8523 48.1973 39.7605 48.0723 39.6277 47.959C39.4949 47.8457 39.3074 47.7363 39.0652 47.6309C38.827 47.5215 38.5223 47.4102 38.1512 47.2969C37.7449 47.1719 37.3699 47.0332 37.0262 46.8809C36.6863 46.7246 36.3895 46.5449 36.1355 46.3418C35.8816 46.1348 35.6844 45.8984 35.5438 45.6328C35.4031 45.3633 35.3328 45.0527 35.3328 44.7012C35.3328 44.3535 35.4051 44.0371 35.5496 43.752C35.698 43.4668 35.907 43.2207 36.1766 43.0137C36.45 42.8027 36.7723 42.6406 37.1434 42.5273C37.5145 42.4102 37.9246 42.3516 38.3738 42.3516C39.0066 42.3516 39.5516 42.4688 40.0086 42.7031C40.4695 42.9375 40.823 43.252 41.0691 43.6465C41.3191 44.041 41.4441 44.4766 41.4441 44.9531H39.9852C39.9852 44.6719 39.9246 44.4238 39.8035 44.209C39.6863 43.9902 39.5066 43.8184 39.2645 43.6934C39.0262 43.5684 38.7234 43.5059 38.3563 43.5059C38.0086 43.5059 37.7195 43.5586 37.4891 43.6641C37.2586 43.7695 37.0867 43.9121 36.9734 44.0918C36.8602 44.2715 36.8035 44.4746 36.8035 44.7012C36.8035 44.8613 36.8406 45.0078 36.9148 45.1406C36.9891 45.2695 37.1023 45.3906 37.2547 45.5039C37.407 45.6133 37.5984 45.7168 37.8289 45.8145C38.0594 45.9121 38.3309 46.0059 38.6434 46.0957C39.116 46.2363 39.5281 46.3926 39.8797 46.5645C40.2313 46.7324 40.5242 46.9238 40.7586 47.1387C40.993 47.3535 41.1688 47.5977 41.2859 47.8711C41.4031 48.1406 41.4617 48.4473 41.4617 48.791C41.4617 49.1504 41.3895 49.4746 41.2449 49.7637C41.1004 50.0488 40.8934 50.293 40.6238 50.4961C40.3582 50.6953 40.0379 50.8496 39.6629 50.959C39.2918 51.0645 38.8777 51.1172 38.4207 51.1172C38.0105 51.1172 37.6063 51.0625 37.2078 50.9531C36.8133 50.8438 36.4539 50.6777 36.1297 50.4551C35.8055 50.2285 35.5477 49.9473 35.3563 49.6113C35.1648 49.2715 35.0691 48.875 35.0691 48.4219H36.5398C36.5398 48.6992 36.5867 48.9355 36.6805 49.1309C36.7781 49.3262 36.9129 49.4863 37.0848 49.6113C37.2566 49.7324 37.4559 49.8223 37.6824 49.8809C37.9129 49.9395 38.159 49.9688 38.4207 49.9688C38.7645 49.9688 39.0516 49.9199 39.282 49.8223C39.5164 49.7246 39.6922 49.5879 39.8094 49.4121C39.9266 49.2363 39.9852 49.0332 39.9852 48.8027ZM44.5445 49.5938L46.0094 44.6602H46.9117L46.6656 46.1367L45.1891 51H44.3805L44.5445 49.5938ZM43.6832 44.6602L44.8258 49.6172L44.9195 51H44.0172L42.3004 44.6602H43.6832ZM48.2828 49.5586L49.3902 44.6602H50.7672L49.0563 51H48.1539L48.2828 49.5586ZM47.0641 44.6602L48.5113 49.5352L48.693 51H47.8844L46.3902 46.1309L46.1441 44.6602H47.0641ZM55.5023 49.7285V46.7051C55.5023 46.4785 55.4613 46.2832 55.3793 46.1191C55.2973 45.9551 55.1723 45.8281 55.0043 45.7383C54.8402 45.6484 54.6332 45.6035 54.3832 45.6035C54.1527 45.6035 53.9535 45.6426 53.7855 45.7207C53.6176 45.7988 53.4867 45.9043 53.393 46.0371C53.2992 46.1699 53.2523 46.3203 53.2523 46.4883H51.8461C51.8461 46.2383 51.9066 45.9961 52.0277 45.7617C52.1488 45.5273 52.3246 45.3184 52.5551 45.1348C52.7855 44.9512 53.0609 44.8066 53.3812 44.7012C53.7016 44.5957 54.0609 44.543 54.4594 44.543C54.9359 44.543 55.3578 44.623 55.725 44.7832C56.0961 44.9434 56.3871 45.1855 56.598 45.5098C56.8129 45.8301 56.9203 46.2324 56.9203 46.7168V49.5352C56.9203 49.8242 56.9398 50.084 56.9789 50.3145C57.0219 50.541 57.0824 50.7383 57.1605 50.9062V51H55.7133C55.6469 50.8477 55.5941 50.6543 55.5551 50.4199C55.5199 50.1816 55.5023 49.9512 55.5023 49.7285ZM55.7074 47.1445L55.7191 48.0176H54.7055C54.4437 48.0176 54.2133 48.043 54.0141 48.0938C53.8148 48.1406 53.6488 48.2109 53.516 48.3047C53.3832 48.3984 53.2836 48.5117 53.2172 48.6445C53.1508 48.7773 53.1176 48.9277 53.1176 49.0957C53.1176 49.2637 53.1566 49.418 53.2348 49.5586C53.3129 49.6953 53.4262 49.8027 53.5746 49.8809C53.727 49.959 53.9105 49.998 54.1254 49.998C54.4145 49.998 54.6664 49.9395 54.8812 49.8223C55.1 49.7012 55.2719 49.5547 55.3969 49.3828C55.5219 49.207 55.5883 49.041 55.5961 48.8848L56.0531 49.5117C56.0062 49.6719 55.9262 49.8438 55.8129 50.0273C55.6996 50.2109 55.5512 50.3867 55.3676 50.5547C55.1879 50.7188 54.9711 50.8535 54.7172 50.959C54.4672 51.0645 54.1781 51.1172 53.85 51.1172C53.4359 51.1172 53.0668 51.0352 52.7426 50.8711C52.4184 50.7031 52.1645 50.4785 51.9809 50.1973C51.7973 49.9121 51.7055 49.5898 51.7055 49.2305C51.7055 48.8945 51.768 48.5977 51.893 48.3398C52.0219 48.0781 52.2094 47.8594 52.4555 47.6836C52.7055 47.5078 53.0102 47.375 53.3695 47.2852C53.7289 47.1914 54.1391 47.1445 54.6 47.1445H55.7074ZM60.0148 45.8789V53.4375H58.6027V44.6602H59.9035L60.0148 45.8789ZM64.1457 47.7715V47.8945C64.1457 48.3555 64.091 48.7832 63.9816 49.1777C63.8762 49.5684 63.718 49.9102 63.507 50.2031C63.3 50.4922 63.0441 50.7168 62.7395 50.877C62.4348 51.0371 62.0832 51.1172 61.6848 51.1172C61.2902 51.1172 60.9445 51.0449 60.6477 50.9004C60.3547 50.752 60.1066 50.543 59.9035 50.2734C59.7004 50.0039 59.5363 49.6875 59.4113 49.3242C59.2902 48.957 59.2043 48.5547 59.1535 48.1172V47.6426C59.2043 47.1777 59.2902 46.7559 59.4113 46.377C59.5363 45.998 59.7004 45.6719 59.9035 45.3984C60.1066 45.125 60.3547 44.9141 60.6477 44.7656C60.9406 44.6172 61.2824 44.543 61.673 44.543C62.0715 44.543 62.425 44.6211 62.7336 44.7773C63.0422 44.9297 63.302 45.1484 63.5129 45.4336C63.7238 45.7148 63.882 46.0547 63.9875 46.4531C64.093 46.8477 64.1457 47.2871 64.1457 47.7715ZM62.7336 47.8945V47.7715C62.7336 47.4785 62.7063 47.207 62.6516 46.957C62.5969 46.7031 62.5109 46.4805 62.3938 46.2891C62.2766 46.0977 62.1262 45.9492 61.9426 45.8438C61.7629 45.7344 61.5461 45.6797 61.2922 45.6797C61.0422 45.6797 60.8273 45.7227 60.6477 45.8086C60.468 45.8906 60.3176 46.0059 60.1965 46.1543C60.0754 46.3027 59.9816 46.4766 59.9152 46.6758C59.8488 46.8711 59.802 47.084 59.7746 47.3145V48.4512C59.8215 48.7324 59.9016 48.9902 60.0148 49.2246C60.1281 49.459 60.2883 49.6465 60.4953 49.7871C60.7063 49.9238 60.9758 49.9922 61.3039 49.9922C61.5578 49.9922 61.7746 49.9375 61.9543 49.8281C62.134 49.7188 62.2805 49.5684 62.3938 49.377C62.5109 49.1816 62.5969 48.957 62.6516 48.7031C62.7063 48.4492 62.7336 48.1797 62.7336 47.8945Z" fill="#65656A"/>
</svg>
