<svg width="99" height="66" viewBox="0 0 99 66" fill="none" xmlns="http://www.w3.org/2000/svg">
<path d="M45.3751 34H53.3751C57.3951 34 58.1151 32.39 58.3251 30.43L59.0751 22.43C59.3451 19.99 58.6451 18 54.3751 18H44.3751C40.1051 18 39.4051 19.99 39.6751 22.43L40.4251 30.43C40.6351 32.39 41.3551 34 45.3751 34Z" stroke="#65656A" stroke-width="1.5" stroke-miterlimit="10" stroke-linecap="round" stroke-linejoin="round"/>
<path d="M45.375 18V17.2C45.375 15.43 45.375 14 48.575 14H50.175C53.375 14 53.375 15.43 53.375 17.2V18" stroke="#65656A" stroke-width="1.5" stroke-miterlimit="10" stroke-linecap="round" stroke-linejoin="round"/>
<path d="M51.375 25V26C51.375 26.01 51.375 26.01 51.375 26.02C51.375 27.11 51.365 28 49.375 28C47.395 28 47.375 27.12 47.375 26.03V25C47.375 24 47.375 24 48.375 24H50.375C51.375 24 51.375 24 51.375 25Z" stroke="#65656A" stroke-width="1.5" stroke-miterlimit="10" stroke-linecap="round" stroke-linejoin="round"/>
<path d="M59.025 23C56.715 24.68 54.075 25.68 51.375 26.02" stroke="#65656A" stroke-width="1.5" stroke-miterlimit="10" stroke-linecap="round" stroke-linejoin="round"/>
<path d="M39.9951 23.2695C42.2451 24.8095 44.7851 25.7395 47.3751 26.0295" stroke="#65656A" stroke-width="1.5" stroke-miterlimit="10" stroke-linecap="round" stroke-linejoin="round"/>
<path d="M39.5008 43.6055L36.952 51H35.4109L38.6219 42.4688H39.6063L39.5008 43.6055ZM41.6336 51L39.0789 43.6055L38.9676 42.4688H39.9578L43.1805 51H41.6336ZM41.5105 47.8359V49.002H36.8699V47.8359H41.5105ZM45.5074 45.8789V53.4375H44.0953V44.6602H45.3961L45.5074 45.8789ZM49.6383 47.7715V47.8945C49.6383 48.3555 49.5836 48.7832 49.4742 49.1777C49.3688 49.5684 49.2105 49.9102 48.9996 50.2031C48.7926 50.4922 48.5367 50.7168 48.232 50.877C47.9273 51.0371 47.5758 51.1172 47.1773 51.1172C46.7828 51.1172 46.4371 51.0449 46.1402 50.9004C45.8473 50.752 45.5992 50.543 45.3961 50.2734C45.193 50.0039 45.0289 49.6875 44.9039 49.3242C44.7828 48.957 44.6969 48.5547 44.6461 48.1172V47.6426C44.6969 47.1777 44.7828 46.7559 44.9039 46.377C45.0289 45.998 45.193 45.6719 45.3961 45.3984C45.5992 45.125 45.8473 44.9141 46.1402 44.7656C46.4332 44.6172 46.775 44.543 47.1656 44.543C47.5641 44.543 47.9176 44.6211 48.2262 44.7773C48.5348 44.9297 48.7945 45.1484 49.0055 45.4336C49.2164 45.7148 49.3746 46.0547 49.4801 46.4531C49.5855 46.8477 49.6383 47.2871 49.6383 47.7715ZM48.2262 47.8945V47.7715C48.2262 47.4785 48.1988 47.207 48.1441 46.957C48.0895 46.7031 48.0035 46.4805 47.8863 46.2891C47.7691 46.0977 47.6188 45.9492 47.4352 45.8438C47.2555 45.7344 47.0387 45.6797 46.7848 45.6797C46.5348 45.6797 46.3199 45.7227 46.1402 45.8086C45.9605 45.8906 45.8102 46.0059 45.6891 46.1543C45.568 46.3027 45.4742 46.4766 45.4078 46.6758C45.3414 46.8711 45.2945 47.084 45.2672 47.3145V48.4512C45.3141 48.7324 45.3941 48.9902 45.5074 49.2246C45.6207 49.459 45.7809 49.6465 45.9879 49.7871C46.1988 49.9238 46.4684 49.9922 46.7965 49.9922C47.0504 49.9922 47.2672 49.9375 47.4469 49.8281C47.6266 49.7188 47.773 49.5684 47.8863 49.377C48.0035 49.1816 48.0895 48.957 48.1441 48.7031C48.1988 48.4492 48.2262 48.1797 48.2262 47.8945ZM52.4574 45.8789V53.4375H51.0453V44.6602H52.3461L52.4574 45.8789ZM56.5883 47.7715V47.8945C56.5883 48.3555 56.5336 48.7832 56.4242 49.1777C56.3187 49.5684 56.1605 49.9102 55.9496 50.2031C55.7426 50.4922 55.4867 50.7168 55.182 50.877C54.8773 51.0371 54.5258 51.1172 54.1273 51.1172C53.7328 51.1172 53.3871 51.0449 53.0902 50.9004C52.7973 50.752 52.5492 50.543 52.3461 50.2734C52.143 50.0039 51.9789 49.6875 51.8539 49.3242C51.7328 48.957 51.6469 48.5547 51.5961 48.1172V47.6426C51.6469 47.1777 51.7328 46.7559 51.8539 46.377C51.9789 45.998 52.143 45.6719 52.3461 45.3984C52.5492 45.125 52.7973 44.9141 53.0902 44.7656C53.3832 44.6172 53.725 44.543 54.1156 44.543C54.5141 44.543 54.8676 44.6211 55.1762 44.7773C55.4848 44.9297 55.7445 45.1484 55.9555 45.4336C56.1664 45.7148 56.3246 46.0547 56.4301 46.4531C56.5355 46.8477 56.5883 47.2871 56.5883 47.7715ZM55.1762 47.8945V47.7715C55.1762 47.4785 55.1488 47.207 55.0941 46.957C55.0395 46.7031 54.9535 46.4805 54.8363 46.2891C54.7191 46.0977 54.5687 45.9492 54.3852 45.8438C54.2055 45.7344 53.9887 45.6797 53.7348 45.6797C53.4848 45.6797 53.2699 45.7227 53.0902 45.8086C52.9105 45.8906 52.7602 46.0059 52.6391 46.1543C52.518 46.3027 52.4242 46.4766 52.3578 46.6758C52.2914 46.8711 52.2445 47.084 52.2172 47.3145V48.4512C52.2641 48.7324 52.3441 48.9902 52.4574 49.2246C52.5707 49.459 52.7309 49.6465 52.9379 49.7871C53.1488 49.9238 53.4184 49.9922 53.7465 49.9922C54.0004 49.9922 54.2172 49.9375 54.3969 49.8281C54.5766 49.7188 54.723 49.5684 54.8363 49.377C54.9535 49.1816 55.0395 48.957 55.0941 48.7031C55.1488 48.4492 55.1762 48.1797 55.1762 47.8945ZM61.5461 49.2832C61.5461 49.1426 61.5109 49.0156 61.4406 48.9023C61.3703 48.7852 61.2355 48.6797 61.0363 48.5859C60.841 48.4922 60.552 48.4062 60.1691 48.3281C59.8332 48.2539 59.5246 48.166 59.2434 48.0645C58.966 47.959 58.7277 47.832 58.5285 47.6836C58.3293 47.5352 58.175 47.3594 58.0656 47.1562C57.9563 46.9531 57.9016 46.7188 57.9016 46.4531C57.9016 46.1953 57.9582 45.9512 58.0715 45.7207C58.1848 45.4902 58.3469 45.2871 58.5578 45.1113C58.7688 44.9355 59.0246 44.7969 59.3254 44.6953C59.6301 44.5938 59.9699 44.543 60.3449 44.543C60.8762 44.543 61.3313 44.6328 61.7102 44.8125C62.093 44.9883 62.3859 45.2285 62.5891 45.5332C62.7922 45.834 62.8938 46.1738 62.8938 46.5527H61.4816C61.4816 46.3848 61.4387 46.2285 61.3527 46.084C61.2707 45.9355 61.1457 45.8164 60.9777 45.7266C60.8098 45.6328 60.5988 45.5859 60.3449 45.5859C60.1027 45.5859 59.9016 45.625 59.7414 45.7031C59.5852 45.7773 59.468 45.875 59.3898 45.9961C59.3156 46.1172 59.2785 46.25 59.2785 46.3945C59.2785 46.5 59.298 46.5957 59.3371 46.6816C59.3801 46.7637 59.4504 46.8398 59.548 46.9102C59.6457 46.9766 59.7785 47.0391 59.9465 47.0977C60.1184 47.1562 60.3332 47.2129 60.591 47.2676C61.0754 47.3691 61.4914 47.5 61.8391 47.6602C62.1906 47.8164 62.4602 48.0195 62.6477 48.2695C62.8352 48.5156 62.9289 48.8281 62.9289 49.207C62.9289 49.4883 62.8684 49.7461 62.7473 49.9805C62.6301 50.2109 62.4582 50.4121 62.2316 50.584C62.0051 50.752 61.7336 50.8828 61.4172 50.9766C61.1047 51.0703 60.7531 51.1172 60.3625 51.1172C59.7883 51.1172 59.302 51.0156 58.9035 50.8125C58.5051 50.6055 58.2023 50.3418 57.9953 50.0215C57.7922 49.6973 57.6906 49.3613 57.6906 49.0137H59.0559C59.0715 49.2754 59.1438 49.4844 59.2727 49.6406C59.4055 49.793 59.5695 49.9043 59.7648 49.9746C59.9641 50.041 60.1691 50.0742 60.3801 50.0742C60.634 50.0742 60.8469 50.041 61.0188 49.9746C61.1906 49.9043 61.3215 49.8105 61.4113 49.6934C61.5012 49.5723 61.5461 49.4355 61.5461 49.2832Z" fill="#65656A"/>
</svg>
