<svg width="20" height="20" viewBox="0 0 20 20" fill="none" xmlns="http://www.w3.org/2000/svg">
<path d="M13.3332 10.7498V14.2498C13.3332 17.1665 12.1665 18.3332 9.24984 18.3332H5.74984C2.83317 18.3332 1.6665 17.1665 1.6665 14.2498V10.7498C1.6665 7.83317 2.83317 6.6665 5.74984 6.6665H9.24984C12.1665 6.6665 13.3332 7.83317 13.3332 10.7498Z" stroke="#F7F9FB" stroke-width="1.4" stroke-linecap="round" stroke-linejoin="round"/>
<path d="M18.3332 5.74984V9.24984C18.3332 12.1665 17.1665 13.3332 14.2498 13.3332H13.3332V10.7498C13.3332 7.83317 12.1665 6.6665 9.24984 6.6665H6.6665V5.74984C6.6665 2.83317 7.83317 1.6665 10.7498 1.6665H14.2498C17.1665 1.6665 18.3332 2.83317 18.3332 5.74984Z" stroke="#F7F9FB" stroke-width="1.4" stroke-linecap="round" stroke-linejoin="round"/>
</svg>
