<svg width="99" height="66" viewBox="0 0 99 66" fill="none" xmlns="http://www.w3.org/2000/svg">
<path d="M40.875 34H58.875" stroke="#65656A" stroke-width="1.5" stroke-linecap="round" stroke-linejoin="round"/>
<path d="M43.475 20.3799H41.875C41.325 20.3799 40.875 20.8299 40.875 21.3799V29.9999C40.875 30.5499 41.325 30.9999 41.875 30.9999H43.475C44.025 30.9999 44.475 30.5499 44.475 29.9999V21.3799C44.475 20.8299 44.025 20.3799 43.475 20.3799Z" stroke="#65656A" stroke-width="1.5" stroke-linecap="round" stroke-linejoin="round"/>
<path d="M50.6749 17.1904H49.075C48.525 17.1904 48.075 17.6404 48.075 18.1904V30.0004C48.075 30.5504 48.525 31.0004 49.075 31.0004H50.6749C51.2249 31.0004 51.6749 30.5504 51.6749 30.0004V18.1904C51.6749 17.6404 51.2249 17.1904 50.6749 17.1904Z" stroke="#65656A" stroke-width="1.5" stroke-linecap="round" stroke-linejoin="round"/>
<path d="M57.875 14H56.275C55.725 14 55.275 14.45 55.275 15V30C55.275 30.55 55.725 31 56.275 31H57.875C58.425 31 58.875 30.55 58.875 30V15C58.875 14.45 58.425 14 57.875 14Z" stroke="#65656A" stroke-width="1.5" stroke-linecap="round" stroke-linejoin="round"/>
<path d="M36.4141 48.8027C36.4141 48.627 36.3867 48.4707 36.332 48.334C36.2812 48.1973 36.1895 48.0723 36.0566 47.959C35.9238 47.8457 35.7363 47.7363 35.4941 47.6309C35.2559 47.5215 34.9512 47.4102 34.5801 47.2969C34.1738 47.1719 33.7988 47.0332 33.4551 46.8809C33.1152 46.7246 32.8184 46.5449 32.5645 46.3418C32.3105 46.1348 32.1133 45.8984 31.9727 45.6328C31.832 45.3633 31.7617 45.0527 31.7617 44.7012C31.7617 44.3535 31.834 44.0371 31.9785 43.752C32.127 43.4668 32.3359 43.2207 32.6055 43.0137C32.8789 42.8027 33.2012 42.6406 33.5723 42.5273C33.9434 42.4102 34.3535 42.3516 34.8027 42.3516C35.4355 42.3516 35.9805 42.4688 36.4375 42.7031C36.8984 42.9375 37.252 43.252 37.498 43.6465C37.748 44.041 37.873 44.4766 37.873 44.9531H36.4141C36.4141 44.6719 36.3535 44.4238 36.2324 44.209C36.1152 43.9902 35.9355 43.8184 35.6934 43.6934C35.4551 43.5684 35.1523 43.5059 34.7852 43.5059C34.4375 43.5059 34.1484 43.5586 33.918 43.6641C33.6875 43.7695 33.5156 43.9121 33.4023 44.0918C33.2891 44.2715 33.2324 44.4746 33.2324 44.7012C33.2324 44.8613 33.2695 45.0078 33.3438 45.1406C33.418 45.2695 33.5312 45.3906 33.6836 45.5039C33.8359 45.6133 34.0273 45.7168 34.2578 45.8145C34.4883 45.9121 34.7598 46.0059 35.0723 46.0957C35.5449 46.2363 35.957 46.3926 36.3086 46.5645C36.6602 46.7324 36.9531 46.9238 37.1875 47.1387C37.4219 47.3535 37.5977 47.5977 37.7148 47.8711C37.832 48.1406 37.8906 48.4473 37.8906 48.791C37.8906 49.1504 37.8184 49.4746 37.6738 49.7637C37.5293 50.0488 37.3223 50.293 37.0527 50.4961C36.7871 50.6953 36.4668 50.8496 36.0918 50.959C35.7207 51.0645 35.3066 51.1172 34.8496 51.1172C34.4395 51.1172 34.0352 51.0625 33.6367 50.9531C33.2422 50.8438 32.8828 50.6777 32.5586 50.4551C32.2344 50.2285 31.9766 49.9473 31.7852 49.6113C31.5938 49.2715 31.498 48.875 31.498 48.4219H32.9688C32.9688 48.6992 33.0156 48.9355 33.1094 49.1309C33.207 49.3262 33.3418 49.4863 33.5137 49.6113C33.6855 49.7324 33.8848 49.8223 34.1113 49.8809C34.3418 49.9395 34.5879 49.9688 34.8496 49.9688C35.1934 49.9688 35.4805 49.9199 35.7109 49.8223C35.9453 49.7246 36.1211 49.5879 36.2383 49.4121C36.3555 49.2363 36.4141 49.0332 36.4141 48.8027ZM42.157 44.6602V45.6914H38.5828V44.6602H42.157ZM39.6141 43.1074H41.0262V49.248C41.0262 49.4434 41.0535 49.5938 41.1082 49.6992C41.1668 49.8008 41.2469 49.8691 41.3484 49.9043C41.45 49.9395 41.5691 49.957 41.7059 49.957C41.8035 49.957 41.8973 49.9512 41.9871 49.9395C42.077 49.9277 42.1492 49.916 42.2039 49.9043L42.2098 50.9824C42.0926 51.0176 41.9559 51.0488 41.7996 51.0762C41.6473 51.1035 41.4715 51.1172 41.2723 51.1172C40.948 51.1172 40.6609 51.0605 40.4109 50.9473C40.1609 50.8301 39.9656 50.6406 39.825 50.3789C39.6844 50.1172 39.6141 49.7695 39.6141 49.3359V43.1074ZM43.0367 47.9004V47.7656C43.0367 47.3086 43.1031 46.8848 43.2359 46.4941C43.3688 46.0996 43.5602 45.7578 43.8102 45.4688C44.0641 45.1758 44.3727 44.9492 44.7359 44.7891C45.1031 44.625 45.5172 44.543 45.9781 44.543C46.443 44.543 46.857 44.625 47.2203 44.7891C47.5875 44.9492 47.898 45.1758 48.152 45.4688C48.4059 45.7578 48.5992 46.0996 48.732 46.4941C48.8648 46.8848 48.9313 47.3086 48.9313 47.7656V47.9004C48.9313 48.3574 48.8648 48.7812 48.732 49.1719C48.5992 49.5625 48.4059 49.9043 48.152 50.1973C47.898 50.4863 47.5895 50.7129 47.2262 50.877C46.8629 51.0371 46.4508 51.1172 45.9898 51.1172C45.525 51.1172 45.109 51.0371 44.7418 50.877C44.3785 50.7129 44.0699 50.4863 43.816 50.1973C43.5621 49.9043 43.3688 49.5625 43.2359 49.1719C43.1031 48.7812 43.0367 48.3574 43.0367 47.9004ZM44.4488 47.7656V47.9004C44.4488 48.1855 44.4781 48.4551 44.5367 48.709C44.5953 48.9629 44.6871 49.1855 44.8121 49.377C44.9371 49.5684 45.0973 49.7188 45.2926 49.8281C45.4879 49.9375 45.7203 49.9922 45.9898 49.9922C46.2516 49.9922 46.4781 49.9375 46.6695 49.8281C46.8648 49.7188 47.025 49.5684 47.15 49.377C47.275 49.1855 47.3668 48.9629 47.4254 48.709C47.4879 48.4551 47.5191 48.1855 47.5191 47.9004V47.7656C47.5191 47.4844 47.4879 47.2188 47.4254 46.9688C47.3668 46.7148 47.273 46.4902 47.1441 46.2949C47.0191 46.0996 46.859 45.9473 46.6637 45.8379C46.4723 45.7246 46.2438 45.668 45.9781 45.668C45.7125 45.668 45.482 45.7246 45.2867 45.8379C45.0953 45.9473 44.9371 46.0996 44.8121 46.2949C44.6871 46.4902 44.5953 46.7148 44.5367 46.9688C44.4781 47.2188 44.4488 47.4844 44.4488 47.7656ZM52.9047 49.9922C53.1352 49.9922 53.3422 49.9473 53.5258 49.8574C53.7133 49.7637 53.8637 49.6348 53.977 49.4707C54.0941 49.3066 54.1586 49.1172 54.1703 48.9023H55.5004C55.4926 49.3125 55.3715 49.6855 55.1371 50.0215C54.9027 50.3574 54.5922 50.625 54.2055 50.8242C53.8187 51.0195 53.391 51.1172 52.9223 51.1172C52.4379 51.1172 52.016 51.0352 51.6566 50.8711C51.2973 50.7031 50.9984 50.4727 50.7602 50.1797C50.5219 49.8867 50.3422 49.5488 50.2211 49.166C50.1039 48.7832 50.0453 48.373 50.0453 47.9355V47.7305C50.0453 47.293 50.1039 46.8828 50.2211 46.5C50.3422 46.1133 50.5219 45.7734 50.7602 45.4805C50.9984 45.1875 51.2973 44.959 51.6566 44.7949C52.016 44.627 52.4359 44.543 52.9164 44.543C53.4242 44.543 53.8695 44.6445 54.2523 44.8477C54.6352 45.0469 54.9359 45.3262 55.1547 45.6855C55.3773 46.041 55.4926 46.4551 55.5004 46.9277H54.1703C54.1586 46.6934 54.1 46.4824 53.9945 46.2949C53.893 46.1035 53.7484 45.9512 53.5609 45.8379C53.3773 45.7246 53.1566 45.668 52.8988 45.668C52.6137 45.668 52.3773 45.7266 52.1898 45.8438C52.0023 45.957 51.8559 46.1133 51.7504 46.3125C51.6449 46.5078 51.5687 46.7285 51.5219 46.9746C51.4789 47.2168 51.4574 47.4688 51.4574 47.7305V47.9355C51.4574 48.1973 51.4789 48.4512 51.5219 48.6973C51.5648 48.9434 51.6391 49.1641 51.7445 49.3594C51.8539 49.5508 52.0023 49.7051 52.1898 49.8223C52.3773 49.9355 52.6156 49.9922 52.9047 49.9922ZM58.2082 42V51H56.7902V42H58.2082ZM62.1457 44.6602L59.3859 47.7188L57.8742 49.2656L57.5051 48.0703L58.6477 46.6582L60.4406 44.6602H62.1457ZM60.7453 51L58.6887 48.0234L59.5793 47.0332L62.3801 51H60.7453ZM66.7988 49.2832C66.7988 49.1426 66.7637 49.0156 66.6934 48.9023C66.623 48.7852 66.4883 48.6797 66.2891 48.5859C66.0938 48.4922 65.8047 48.4062 65.4219 48.3281C65.0859 48.2539 64.7773 48.166 64.4961 48.0645C64.2188 47.959 63.9805 47.832 63.7812 47.6836C63.582 47.5352 63.4277 47.3594 63.3184 47.1562C63.209 46.9531 63.1543 46.7188 63.1543 46.4531C63.1543 46.1953 63.2109 45.9512 63.3242 45.7207C63.4375 45.4902 63.5996 45.2871 63.8105 45.1113C64.0215 44.9355 64.2773 44.7969 64.5781 44.6953C64.8828 44.5938 65.2227 44.543 65.5977 44.543C66.1289 44.543 66.584 44.6328 66.9629 44.8125C67.3457 44.9883 67.6387 45.2285 67.8418 45.5332C68.0449 45.834 68.1465 46.1738 68.1465 46.5527H66.7344C66.7344 46.3848 66.6914 46.2285 66.6055 46.084C66.5234 45.9355 66.3984 45.8164 66.2305 45.7266C66.0625 45.6328 65.8516 45.5859 65.5977 45.5859C65.3555 45.5859 65.1543 45.625 64.9941 45.7031C64.8379 45.7773 64.7207 45.875 64.6426 45.9961C64.5684 46.1172 64.5312 46.25 64.5312 46.3945C64.5312 46.5 64.5508 46.5957 64.5898 46.6816C64.6328 46.7637 64.7031 46.8398 64.8008 46.9102C64.8984 46.9766 65.0312 47.0391 65.1992 47.0977C65.3711 47.1562 65.5859 47.2129 65.8438 47.2676C66.3281 47.3691 66.7441 47.5 67.0918 47.6602C67.4434 47.8164 67.7129 48.0195 67.9004 48.2695C68.0879 48.5156 68.1816 48.8281 68.1816 49.207C68.1816 49.4883 68.1211 49.7461 68 49.9805C67.8828 50.2109 67.7109 50.4121 67.4844 50.584C67.2578 50.752 66.9863 50.8828 66.6699 50.9766C66.3574 51.0703 66.0059 51.1172 65.6152 51.1172C65.041 51.1172 64.5547 51.0156 64.1562 50.8125C63.7578 50.6055 63.4551 50.3418 63.248 50.0215C63.0449 49.6973 62.9434 49.3613 62.9434 49.0137H64.3086C64.3242 49.2754 64.3965 49.4844 64.5254 49.6406C64.6582 49.793 64.8223 49.9043 65.0176 49.9746C65.2168 50.041 65.4219 50.0742 65.6328 50.0742C65.8867 50.0742 66.0996 50.041 66.2715 49.9746C66.4434 49.9043 66.5742 49.8105 66.6641 49.6934C66.7539 49.5723 66.7988 49.4355 66.7988 49.2832Z" fill="#65656A"/>
</svg>
