<svg width="24" height="24" viewBox="0 0 24 24" fill="none" xmlns="http://www.w3.org/2000/svg">
<path d="M4.21 14.9301C6.27 16.9801 9.22 17.6101 11.81 16.8001L16.52 21.5001C16.86 21.8501 17.53 22.0601 18.01 21.9901L20.19 21.6901C20.91 21.5901 21.58 20.9101 21.69 20.1901L21.99 18.0101C22.06 17.5301 21.83 16.8601 21.5 16.5201L16.8 11.8201C17.6 9.22007 16.98 6.27007 14.92 4.22007C11.97 1.27007 7.18 1.27007 4.22 4.22007C1.26 7.17007 1.26 11.9801 4.21 14.9301Z" stroke="#07ACFF" stroke-width="1.5" stroke-miterlimit="10" stroke-linecap="round" stroke-linejoin="round"/>
<path d="M17.11 17.49L14.81 19.79" stroke="#07ACFF" stroke-width="1.5" stroke-miterlimit="10" stroke-linecap="round" stroke-linejoin="round"/>
<path d="M9.5 11C8.67157 11 8 10.3284 8 9.5C8 8.67157 8.67157 8 9.5 8C10.3284 8 11 8.67157 11 9.5C11 10.3284 10.3284 11 9.5 11Z" stroke="#07ACFF" stroke-width="1.5" stroke-linecap="round" stroke-linejoin="round"/>
</svg>
