<svg width="47" height="46" viewBox="0 0 47 46" fill="none" xmlns="http://www.w3.org/2000/svg">
<rect x="0.900024" width="46" height="46" rx="23" fill="#07ACFF"/>
<path d="M22.6516 27.8604V29.8904C22.6516 31.6104 21.0516 33.0004 19.0816 33.0004C17.1116 33.0004 15.5016 31.6104 15.5016 29.8904V27.8604C15.5016 29.5804 17.1016 30.8004 19.0816 30.8004C21.0516 30.8004 22.6516 29.5704 22.6516 27.8604Z" stroke="white" stroke-width="1.5" stroke-linecap="round" stroke-linejoin="round"/>
<path d="M22.65 25.1097C22.65 25.6097 22.51 26.0697 22.27 26.4697C21.68 27.4397 20.4699 28.0497 19.0699 28.0497C17.6699 28.0497 16.4599 27.4297 15.8699 26.4697C15.6299 26.0697 15.49 25.6097 15.49 25.1097C15.49 24.2497 15.89 23.4797 16.53 22.9197C17.18 22.3497 18.0699 22.0098 19.0599 22.0098C20.0499 22.0098 20.94 22.3597 21.59 22.9197C22.25 23.4697 22.65 24.2497 22.65 25.1097Z" stroke="white" stroke-width="1.5" stroke-linecap="round" stroke-linejoin="round"/>
<path d="M22.6516 25.11V27.86C22.6516 29.58 21.0516 30.8 19.0816 30.8C17.1116 30.8 15.5016 29.57 15.5016 27.86V25.11C15.5016 23.39 17.1016 22 19.0816 22C20.0716 22 20.9616 22.35 21.6116 22.91C22.2516 23.47 22.6516 24.25 22.6516 25.11Z" stroke="white" stroke-width="1.5" stroke-linecap="round" stroke-linejoin="round"/>
<path d="M33.9001 21.9702V24.0302C33.9001 24.5802 33.4601 25.0302 32.9001 25.0502H30.9401C29.8601 25.0502 28.8701 24.2602 28.7801 23.1802C28.7201 22.5502 28.9601 21.9602 29.3801 21.5502C29.7501 21.1702 30.2601 20.9502 30.8201 20.9502H32.9001C33.4601 20.9702 33.9001 21.4202 33.9001 21.9702Z" stroke="white" stroke-width="1.5" stroke-linecap="round" stroke-linejoin="round"/>
<path d="M13.9 21.5V19.5C13.9 16.78 15.54 14.88 18.09 14.56C18.35 14.52 18.62 14.5 18.9 14.5H27.9C28.16 14.5 28.41 14.51 28.65 14.55C31.23 14.85 32.9 16.76 32.9 19.5V20.95H30.82C30.26 20.95 29.75 21.17 29.38 21.55C28.96 21.96 28.72 22.55 28.78 23.18C28.87 24.26 29.86 25.05 30.94 25.05H32.9V26.5C32.9 29.5 30.9 31.5 27.9 31.5H25.4" stroke="white" stroke-width="1.5" stroke-linecap="round" stroke-linejoin="round"/>
</svg>
