<svg width="35" height="35" viewBox="0 0 35 35" fill="none" xmlns="http://www.w3.org/2000/svg">
<path d="M18.0384 3.13511L31.1634 8.38507C31.6738 8.58924 32.0822 9.20173 32.0822 9.74131V14.583C32.0822 15.3851 31.4259 16.0413 30.6239 16.0413H4.37386C3.57178 16.0413 2.91553 15.3851 2.91553 14.583V9.74131C2.91553 9.20173 3.32387 8.58924 3.83428 8.38507L16.9593 3.13511C17.2509 3.01844 17.7468 3.01844 18.0384 3.13511Z" stroke="#F7F9FB" stroke-width="1.8" stroke-miterlimit="10" stroke-linecap="round" stroke-linejoin="round"/>
<path d="M32.0822 32.0833H2.91553V27.7083C2.91553 26.9063 3.57178 26.25 4.37386 26.25H30.6239C31.4259 26.25 32.0822 26.9063 32.0822 27.7083V32.0833Z" stroke="#F7F9FB" stroke-width="1.8" stroke-miterlimit="10" stroke-linecap="round" stroke-linejoin="round"/>
<path d="M5.83447 26.2506V16.0422" stroke="#F7F9FB" stroke-width="1.8" stroke-miterlimit="10" stroke-linecap="round" stroke-linejoin="round"/>
<path d="M11.6655 26.2506V16.0422" stroke="#F7F9FB" stroke-width="1.8" stroke-miterlimit="10" stroke-linecap="round" stroke-linejoin="round"/>
<path d="M17.5 26.2506V16.0422" stroke="#F7F9FB" stroke-width="1.8" stroke-miterlimit="10" stroke-linecap="round" stroke-linejoin="round"/>
<path d="M23.3345 26.2506V16.0422" stroke="#F7F9FB" stroke-width="1.8" stroke-miterlimit="10" stroke-linecap="round" stroke-linejoin="round"/>
<path d="M29.1655 26.2506V16.0422" stroke="#F7F9FB" stroke-width="1.8" stroke-miterlimit="10" stroke-linecap="round" stroke-linejoin="round"/>
<path d="M1.45947 32.0828H33.5428" stroke="#F7F9FB" stroke-width="1.8" stroke-miterlimit="10" stroke-linecap="round" stroke-linejoin="round"/>
<path d="M17.5 12.3953C18.7081 12.3953 19.6875 11.4159 19.6875 10.2078C19.6875 8.99964 18.7081 8.02026 17.5 8.02026C16.2919 8.02026 15.3125 8.99964 15.3125 10.2078C15.3125 11.4159 16.2919 12.3953 17.5 12.3953Z" stroke="#F7F9FB" stroke-width="1.8" stroke-miterlimit="10" stroke-linecap="round" stroke-linejoin="round"/>
</svg>
