<svg width="161" height="183" viewBox="0 0 161 183" fill="none" xmlns="http://www.w3.org/2000/svg">
<path d="M154.85 74.2902L100.068 130.568C98.9221 131.745 98.9364 133.625 100.1 134.785L124.758 159.356C125.729 160.323 127.232 160.51 128.41 159.809L158.534 141.89C159.443 141.35 160 140.37 160 139.312L160 76.3828C160 73.6906 156.728 72.3611 154.85 74.2902Z" fill="#07ACFF" stroke="#07ACFF"/>
<path d="M1 139.548L1 76.2603C1 73.5851 4.23657 72.2477 6.12497 74.1426L95.239 163.564C96.6318 164.962 96.3193 167.3 94.6084 168.283L72.2386 181.134C71.3066 181.67 70.1593 181.666 69.2311 181.123L2.48692 142.138C1.5661 141.601 1 140.614 1 139.548Z" fill="#07ACFF" stroke="#07ACFF"/>
<path d="M79.9858 1.88532L18.3551 37.9195C16.6584 38.9115 16.3581 41.24 17.7475 42.6301L78.9757 103.89C80.1423 105.057 82.0324 105.063 83.2062 103.903L145.217 42.6306C146.621 41.2437 146.327 38.9027 144.623 37.9068L83.0142 1.88533C82.0788 1.33842 80.9212 1.33842 79.9858 1.88532Z" fill="#07ACFF" stroke="#07ACFF"/>
</svg>
