<svg width="73" height="72" viewBox="0 0 73 72" fill="none" xmlns="http://www.w3.org/2000/svg">
<rect x="1.25" y="0.75" width="70.5" height="70.5" rx="35.25" stroke="black" stroke-opacity="0.04" stroke-width="1.5"/>
<path d="M36.4996 38.8804C35.5896 38.8804 34.8496 38.1403 34.8496 37.2303V34.7604C34.8496 33.8504 35.5896 33.1104 36.4996 33.1104C37.4096 33.1104 38.1496 33.8504 38.1496 34.7604V37.2303C38.1496 38.1403 37.4096 38.8804 36.4996 38.8804Z" stroke="#07ACFF" stroke-width="1.5" stroke-linecap="round"/>
<path d="M41.48 37.4697C41.28 40.0497 39.12 42.0697 36.5 42.0697C33.74 42.0697 31.5 39.8297 31.5 37.0697V34.9297C31.5 32.1697 33.74 29.9297 36.5 29.9297C39.09 29.9297 41.22 31.8997 41.47 34.4197" stroke="#07ACFF" stroke-width="1.5" stroke-linecap="round"/>
<path d="M39.5 26H41.5C44.5 26 46.5 28 46.5 31V33" stroke="#07ACFF" stroke-width="1.5" stroke-miterlimit="10" stroke-linecap="round" stroke-linejoin="round"/>
<path d="M26.5 33V31C26.5 28 28.5 26 31.5 26H33.5" stroke="#07ACFF" stroke-width="1.5" stroke-miterlimit="10" stroke-linecap="round" stroke-linejoin="round"/>
<path d="M39.5 46H41.5C44.5 46 46.5 44 46.5 41V39" stroke="#07ACFF" stroke-width="1.5" stroke-miterlimit="10" stroke-linecap="round" stroke-linejoin="round"/>
<path d="M26.5 39V41C26.5 44 28.5 46 31.5 46H33.5" stroke="#07ACFF" stroke-width="1.5" stroke-miterlimit="10" stroke-linecap="round" stroke-linejoin="round"/>
</svg>
