<svg width="25" height="24" viewBox="0 0 25 24" fill="none" xmlns="http://www.w3.org/2000/svg">
<path d="M12.5001 14.8799C11.5901 14.8799 10.8501 14.1399 10.8501 13.2299V10.7599C10.8501 9.84989 11.5901 9.10986 12.5001 9.10986C13.4101 9.10986 14.1501 9.84989 14.1501 10.7599V13.2299C14.1501 14.1399 13.4101 14.8799 12.5001 14.8799Z" stroke="#07ACFF" stroke-width="1.5" stroke-linecap="round"/>
<path d="M17.48 13.4702C17.28 16.0502 15.12 18.0702 12.5 18.0702C9.74 18.0702 7.5 15.8302 7.5 13.0702V10.9302C7.5 8.17018 9.74 5.93018 12.5 5.93018C15.09 5.93018 17.22 7.90017 17.47 10.4202" stroke="#07ACFF" stroke-width="1.5" stroke-linecap="round"/>
<path d="M15.5 2H17.5C20.5 2 22.5 4 22.5 7V9" stroke="#07ACFF" stroke-width="1.5" stroke-miterlimit="10" stroke-linecap="round" stroke-linejoin="round"/>
<path d="M2.5 9V7C2.5 4 4.5 2 7.5 2H9.5" stroke="#07ACFF" stroke-width="1.5" stroke-miterlimit="10" stroke-linecap="round" stroke-linejoin="round"/>
<path d="M15.5 22H17.5C20.5 22 22.5 20 22.5 17V15" stroke="#07ACFF" stroke-width="1.5" stroke-miterlimit="10" stroke-linecap="round" stroke-linejoin="round"/>
<path d="M2.5 15V17C2.5 20 4.5 22 7.5 22H9.5" stroke="#07ACFF" stroke-width="1.5" stroke-miterlimit="10" stroke-linecap="round" stroke-linejoin="round"/>
</svg>
