<svg width="73" height="72" viewBox="0 0 73 72" fill="none" xmlns="http://www.w3.org/2000/svg">
<rect x="1.25" y="0.75" width="70.5" height="70.5" rx="35.25" stroke="black" stroke-opacity="0.04" stroke-width="1.5"/>
<g clip-path="url(#clip0_1763_11989)">
<path fill-rule="evenodd" clip-rule="evenodd" d="M32.035 28.5H43.5001C44.8808 28.5 46.0001 29.6193 46.0001 31V41C46.0001 42.3807 44.8808 43.5 43.5001 43.5H32.035C31.4174 43.5 30.8217 43.2714 30.3626 42.8582L24.8071 37.8582C23.7036 36.8651 23.7036 35.1349 24.8071 34.1418L30.3626 29.1418C30.8217 28.7286 31.4174 28.5 32.035 28.5ZM29.3592 28.0268C30.0937 27.3658 31.0469 27 32.035 27H43.5001C45.7092 27 47.5001 28.7909 47.5001 31V41C47.5001 43.2091 45.7092 45 43.5001 45H32.035C31.0469 45 30.0937 44.6342 29.3592 43.9732L23.8036 38.9732C22.0381 37.3842 22.0381 34.6158 23.8036 33.0268L29.3592 28.0268ZM35.0304 32.4697C34.7375 32.1768 34.2627 32.1768 33.9698 32.4697C33.6769 32.7626 33.6769 33.2374 33.9698 33.5303L36.4394 36L33.9698 38.4697C33.6769 38.7626 33.6769 39.2374 33.9698 39.5303C34.2627 39.8232 34.7375 39.8232 35.0304 39.5303L37.5001 37.0607L39.9698 39.5303C40.2627 39.8232 40.7375 39.8232 41.0304 39.5303C41.3233 39.2374 41.3233 38.7626 41.0304 38.4697L38.5608 36L41.0304 33.5303C41.3233 33.2374 41.3233 32.7626 41.0304 32.4697C40.7375 32.1768 40.2627 32.1768 39.9698 32.4697L37.5001 34.9393L35.0304 32.4697Z" fill="#07ACFF"/>
</g>
<defs>
<clipPath id="clip0_1763_11989">
<rect width="28" height="28" fill="white" transform="translate(22.5 22)"/>
</clipPath>
</defs>
</svg>
