<svg width="16" height="16" viewBox="0 0 16 16" fill="none" xmlns="http://www.w3.org/2000/svg">
<path d="M5.33331 7.59883C5.33331 8.11216 5.73331 8.53216 6.21998 8.53216H7.21998C7.64665 8.53216 7.99331 8.16549 7.99331 7.71883C7.99331 7.23216 7.77998 7.05883 7.46665 6.9455L5.86665 6.38549C5.54665 6.27216 5.33331 6.09883 5.33331 5.61216C5.33331 5.16549 5.67998 4.79883 6.10665 4.79883H7.10665C7.59998 4.80549 7.99998 5.21883 7.99998 5.73216" stroke="#07ACFF" stroke-linecap="round" stroke-linejoin="round"/>
<path d="M6.66669 8.56641V9.05974" stroke="#07ACFF" stroke-linecap="round" stroke-linejoin="round"/>
<path d="M6.66669 4.27344V4.79344" stroke="#07ACFF" stroke-linecap="round" stroke-linejoin="round"/>
<path d="M6.65998 11.9873C9.60182 11.9873 11.9866 9.60249 11.9866 6.66065C11.9866 3.71881 9.60182 1.33398 6.65998 1.33398C3.71814 1.33398 1.33331 3.71881 1.33331 6.66065C1.33331 9.60249 3.71814 11.9873 6.65998 11.9873Z" stroke="#07ACFF" stroke-linecap="round" stroke-linejoin="round"/>
<path d="M8.65332 13.2527C9.25332 14.0993 10.2333 14.6527 11.3533 14.6527C13.1733 14.6527 14.6533 13.1727 14.6533 11.3527C14.6533 10.246 14.1067 9.26602 13.2733 8.66602" stroke="#07ACFF" stroke-linecap="round" stroke-linejoin="round"/>
</svg>
