<svg width="16" height="16" viewBox="0 0 16 16" fill="none" xmlns="http://www.w3.org/2000/svg">
<path d="M10.6663 8.60004L10.6663 11.4C10.6663 13.7334 9.73301 14.6667 7.39967 14.6667L4.59967 14.6667C2.26634 14.6667 1.33301 13.7334 1.33301 11.4L1.33301 8.60004C1.33301 6.26671 2.26634 5.33337 4.59967 5.33337H7.39967C9.73301 5.33337 10.6663 6.26671 10.6663 8.60004Z" stroke="white" stroke-width="1.5" stroke-linecap="round" stroke-linejoin="round"/>
<path d="M14.6663 4.60004L14.6663 7.40004C14.6663 9.73337 13.733 10.6667 11.3997 10.6667L10.6663 10.6667L10.6663 8.60004C10.6663 6.26671 9.73301 5.33337 7.39967 5.33337H5.33301V4.60004C5.33301 2.26671 6.26634 1.33337 8.59967 1.33337L11.3997 1.33337C13.733 1.33337 14.6663 2.26671 14.6663 4.60004Z" stroke="white" stroke-width="1.5" stroke-linecap="round" stroke-linejoin="round"/>
</svg>
