<svg width="16" height="16" viewBox="0 0 16 16" fill="none" xmlns="http://www.w3.org/2000/svg">
<path d="M7.99998 14.6673C11.6819 14.6673 14.6666 11.6825 14.6666 8.00065C14.6666 4.31875 11.6819 1.33398 7.99998 1.33398C4.31808 1.33398 1.33331 4.31875 1.33331 8.00065C1.33331 11.6825 4.31808 14.6673 7.99998 14.6673Z" stroke="#07ACFF" stroke-linecap="round" stroke-linejoin="round"/>
<path d="M5.3333 2H5.99996C4.69996 5.89333 4.69996 10.1067 5.99996 14H5.3333" stroke="#07ACFF" stroke-linecap="round" stroke-linejoin="round"/>
<path d="M10 2C11.3 5.89333 11.3 10.1067 10 14" stroke="#07ACFF" stroke-linecap="round" stroke-linejoin="round"/>
<path d="M2 10.6667V10C5.89333 11.3 10.1067 11.3 14 10V10.6667" stroke="#07ACFF" stroke-linecap="round" stroke-linejoin="round"/>
<path d="M2 6.00039C5.89333 4.70039 10.1067 4.70039 14 6.00039" stroke="#07ACFF" stroke-linecap="round" stroke-linejoin="round"/>
</svg>
