<svg width="20" height="25" viewBox="0 0 20 25" fill="none" xmlns="http://www.w3.org/2000/svg">
<path d="M16.2795 7.53V6.28C16.2795 3.58 15.6295 0 9.9995 0C4.3695 0 3.7195 3.58 3.7195 6.28V7.53C0.919496 7.88 -0.000504048 9.3 -0.000504048 12.79V14.65C-0.000504048 18.75 -0.380031 24.5 3.71997 24.5H16.2795C20.3795 24.5 19.9995 18.75 19.9995 14.65V12.79C19.9995 9.3 19.0795 7.88 16.2795 7.53ZM5.3495 7.44C5.2695 7.44 5.1995 7.44 5.1195 7.44V6.28C5.1195 3.35 5.9495 1.4 9.9995 1.4C14.0495 1.4 14.8795 3.35 14.8795 6.28V7.45C14.7995 7.45 14.7295 7.45 14.6495 7.45H5.3495V7.44Z" fill="#292D32"/>
</svg>
