<svg width="15" height="16" viewBox="0 0 15 16" fill="none" xmlns="http://www.w3.org/2000/svg">
<path d="M8.80349 10.9765L13.361 6.29464C13.4653 6.18746 13.6471 6.26132 13.6471 6.41089L13.6471 11.5482C13.6471 11.607 13.6161 11.6614 13.5656 11.6914L10.9979 13.2188C10.9325 13.2577 10.849 13.2474 10.7951 13.1936L8.80527 11.2109C8.74061 11.1464 8.73981 11.042 8.80349 10.9765Z" stroke="#07ACFF" stroke-linejoin="round"/>
<path d="M0.833252 11.5697L0.833252 6.38367C0.833252 6.23504 1.01306 6.16075 1.11797 6.26602L9.00528 14.1805C9.08266 14.2582 9.0653 14.3881 8.97025 14.4427L7.34891 15.3742C7.29713 15.4039 7.23339 15.4037 7.18182 15.3736L0.915858 11.7136C0.864702 11.6837 0.833252 11.6289 0.833252 11.5697Z" stroke="#07ACFF" stroke-linejoin="round"/>
<path d="M1.72891 3.85968L7.25553 0.628376C7.3075 0.597992 7.37181 0.597992 7.42378 0.628376L12.9456 3.85685C13.0402 3.91218 13.0566 4.04223 12.9786 4.11928L7.41843 9.61322C7.35322 9.67766 7.24821 9.67733 7.1834 9.61249L1.69515 4.12138C1.61796 4.04415 1.63465 3.91479 1.72891 3.85968Z" stroke="#07ACFF" stroke-linejoin="round"/>
</svg>
