<svg width="32" height="32" viewBox="0 0 32 32" fill="none" xmlns="http://www.w3.org/2000/svg">
<path d="M23.9999 9.54663C23.9199 9.5333 23.8266 9.5333 23.7466 9.54663C21.9066 9.47996 20.4399 7.9733 20.4399 6.10663C20.4399 4.19996 21.9733 2.66663 23.8799 2.66663C25.7866 2.66663 27.3199 4.2133 27.3199 6.10663C27.3066 7.9733 25.8399 9.47996 23.9999 9.54663Z" stroke="white" stroke-width="1.5" stroke-linecap="round" stroke-linejoin="round"/>
<path d="M22.6264 19.2533C24.4531 19.5599 26.4664 19.2399 27.8798 18.2933C29.7598 17.0399 29.7598 14.9866 27.8798 13.7333C26.4531 12.7866 24.4131 12.4666 22.5864 12.7866" stroke="white" stroke-width="1.5" stroke-linecap="round" stroke-linejoin="round"/>
<path d="M7.96014 9.54663C8.04014 9.5333 8.13347 9.5333 8.21347 9.54663C10.0535 9.47996 11.5201 7.9733 11.5201 6.10663C11.5201 4.19996 9.98681 2.66663 8.08014 2.66663C6.17347 2.66663 4.64014 4.2133 4.64014 6.10663C4.65347 7.9733 6.12014 9.47996 7.96014 9.54663Z" stroke="white" stroke-width="1.5" stroke-linecap="round" stroke-linejoin="round"/>
<path d="M9.33325 19.2533C7.50659 19.5599 5.49326 19.2399 4.07992 18.2933C2.19992 17.0399 2.19992 14.9866 4.07992 13.7333C5.50659 12.7866 7.54659 12.4666 9.37325 12.7866" stroke="white" stroke-width="1.5" stroke-linecap="round" stroke-linejoin="round"/>
<path d="M15.9999 19.5067C15.9199 19.4934 15.8266 19.4934 15.7466 19.5067C13.9066 19.44 12.4399 17.9334 12.4399 16.0667C12.4399 14.16 13.9733 12.6267 15.8799 12.6267C17.7866 12.6267 19.3199 14.1734 19.3199 16.0667C19.3066 17.9334 17.8399 19.4534 15.9999 19.5067Z" stroke="white" stroke-width="1.5" stroke-linecap="round" stroke-linejoin="round"/>
<path d="M12.1204 23.7067C10.2404 24.9601 10.2404 27.0134 12.1204 28.2667C14.2538 29.6934 17.7471 29.6934 19.8804 28.2667C21.7604 27.0134 21.7604 24.9601 19.8804 23.7067C17.7604 22.2934 14.2538 22.2934 12.1204 23.7067Z" stroke="white" stroke-width="1.5" stroke-linecap="round" stroke-linejoin="round"/>
</svg>
