<svg width="32" height="32" viewBox="0 0 32 32" fill="none" xmlns="http://www.w3.org/2000/svg">
<path d="M12.2124 14.4933C12.0791 14.48 11.9191 14.48 11.7724 14.4933C8.5991 14.3866 6.0791 11.7866 6.0791 8.58663C6.0791 5.31996 8.7191 2.66663 11.9991 2.66663C15.2658 2.66663 17.9191 5.31996 17.9191 8.58663C17.9058 11.7866 15.3858 14.3866 12.2124 14.4933Z" stroke="white" stroke-width="1.5" stroke-linecap="round" stroke-linejoin="round"/>
<path d="M21.8804 5.33337C24.467 5.33337 26.547 7.42671 26.547 10C26.547 12.52 24.547 14.5734 22.0537 14.6667C21.947 14.6534 21.827 14.6534 21.707 14.6667" stroke="white" stroke-width="1.5" stroke-linecap="round" stroke-linejoin="round"/>
<path d="M5.54598 19.4134C2.31931 21.5734 2.31931 25.0934 5.54598 27.24C9.21264 29.6934 15.226 29.6934 18.8926 27.24C22.1193 25.08 22.1193 21.56 18.8926 19.4134C15.2393 16.9734 9.22598 16.9734 5.54598 19.4134Z" stroke="white" stroke-width="1.5" stroke-linecap="round" stroke-linejoin="round"/>
<path d="M24.4531 26.6666C25.4131 26.4666 26.3198 26.08 27.0665 25.5066C29.1465 23.9466 29.1465 21.3733 27.0665 19.8133C26.3331 19.2533 25.4398 18.88 24.4931 18.6666" stroke="white" stroke-width="1.5" stroke-linecap="round" stroke-linejoin="round"/>
</svg>
