<svg width="24" height="24" viewBox="0 0 24 24" fill="none" xmlns="http://www.w3.org/2000/svg">
<path d="M15 12C15 10.3431 13.6569 9 12 9C10.3431 9 9 10.3431 9 12C9 13.6569 10.3431 15 12 15C13.6569 15 15 13.6569 15 12Z" stroke="#232328" stroke-width="1.5" stroke-miterlimit="10" stroke-linecap="round" stroke-linejoin="round"/>
<path d="M12.8799 22L11.1199 22C10.0799 22 9.21994 21.15 9.21994 20.1C9.21994 18.29 7.93994 17.55 6.36994 18.46C5.46994 18.98 4.29994 18.67 3.77994 17.76L2.78994 16.03C2.31994 15.24 2.59994 14.22 3.38994 13.75L3.57994 13.64C5.14994 12.74 5.14994 11.26 3.57994 10.35L3.38994 10.24C2.59994 9.77 2.31994 8.75 2.78994 7.96L3.77994 6.23C4.29994 5.32 5.46994 5.01 6.36994 5.53C7.93994 6.44 9.21994 5.7 9.21994 3.89C9.21994 2.85 10.0699 1.99 11.1199 1.99L12.8799 1.99C13.9199 1.99 14.7799 2.84 14.7799 3.89C14.7799 5.7 16.0599 6.44 17.6299 5.53C18.5399 5.01 19.6999 5.32 20.2199 6.23L21.2099 7.96C21.6799 8.75 21.3999 9.77 20.6099 10.24L20.4199 10.35C18.8499 11.25 18.8499 12.73 20.4199 13.64L20.6099 13.75C21.3999 14.22 21.6799 15.24 21.2099 16.03L20.2199 17.76C19.6999 18.67 18.5299 18.98 17.6299 18.46C16.0599 17.55 14.7799 18.29 14.7799 20.1C14.7799 21.15 13.9199 22 12.8799 22Z" stroke="#232328" stroke-width="1.5" stroke-miterlimit="10" stroke-linecap="round" stroke-linejoin="round"/>
</svg>
