<svg width="25" height="24" viewBox="0 0 25 24" fill="none" xmlns="http://www.w3.org/2000/svg">
<path d="M22.75 8.5C22.75 12.09 19.84 15 16.25 15C16.08 15 15.9 14.99 15.73 14.98C15.48 11.81 12.94 9.26999 9.76999 9.01999C9.75999 8.84999 9.75 8.67 9.75 8.5C9.75 4.91 12.66 2 16.25 2C19.84 2 22.75 4.91 22.75 8.5Z" stroke="white" stroke-width="1.5" stroke-linecap="round" stroke-linejoin="round"/>
<path d="M15.75 15.5C15.75 19.09 12.84 22 9.25 22C5.66 22 2.75 19.09 2.75 15.5C2.75 11.91 5.66 9 9.25 9C9.42 9 9.59999 9.00999 9.76999 9.01999C12.94 9.26999 15.48 11.81 15.73 14.98C15.74 15.15 15.75 15.33 15.75 15.5Z" stroke="white" stroke-width="1.5" stroke-linecap="round" stroke-linejoin="round"/>
<path d="M8.37 14.62L9.25 13L10.13 14.62L11.75 15.5L10.13 16.38L9.25 18L8.37 16.38L6.75 15.5L8.37 14.62Z" stroke="white" stroke-width="1.5" stroke-linecap="round" stroke-linejoin="round"/>
</svg>
